<?xml version="1.0" standalone="no"?>
<!DOCTYPE svg PUBLIC "-//W3C//DTD SVG 20010904//EN"
 "http://www.w3.org/TR/2001/REC-SVG-20010904/DTD/svg10.dtd">
<svg version="1.0" xmlns="http://www.w3.org/2000/svg"
 width="50px" height="39px" viewBox="0 0 2048.000000 2048.000000"
 preserveAspectRatio="xMidYMid meet">

<g transform="translate(0.000000,2048.000000) scale(0.100000,-0.100000)"
fill="#000000" stroke="none">
<path d="M13375 19720 c-11 -4 -24 -5 -29 -2 -5 3 -21 -10 -36 -28 -27 -33
-27 -33 -39 -12 -20 38 -62 29 -120 -27 -28 -27 -51 -56 -51 -64 0 -9 -8 -21
-19 -26 -10 -6 -45 -44 -77 -86 -32 -42 -66 -81 -76 -86 -10 -5 -18 -16 -18
-24 0 -7 -20 -34 -45 -59 -25 -26 -45 -53 -45 -61 0 -8 -13 -24 -29 -36 -16
-11 -35 -33 -42 -48 -18 -35 -42 -67 -54 -71 -10 -4 -42 -41 -43 -50 -2 -17
-15 -39 -21 -35 -10 5 -48 -45 -61 -81 -6 -15 -13 -24 -17 -21 -6 6 -73 -72
-71 -82 1 -4 -19 -28 -45 -55 -25 -28 -45 -52 -43 -54 2 -2 -18 -26 -45 -54
-27 -28 -49 -53 -49 -55 0 -12 -64 -92 -70 -88 -5 3 -13 -8 -18 -24 -5 -15
-26 -44 -46 -63 -20 -19 -36 -40 -36 -45 0 -6 -19 -30 -42 -54 -24 -24 -42
-47 -41 -51 2 -4 -17 -28 -42 -53 -25 -25 -45 -52 -45 -60 0 -7 -16 -26 -35
-40 -19 -15 -37 -37 -41 -48 -4 -12 -26 -42 -50 -65 -24 -24 -44 -49 -44 -55
0 -7 -16 -28 -36 -47 -20 -19 -41 -48 -46 -63 -6 -15 -13 -26 -16 -23 -5 6
-72 -74 -69 -83 0 -4 -18 -26 -41 -50 -23 -24 -39 -48 -36 -52 3 -5 -2 -12
-10 -15 -8 -3 -48 -47 -88 -97 -39 -51 -76 -96 -80 -102 -5 -5 -21 -27 -37
-48 -17 -21 -33 -38 -37 -37 -4 1 -13 -11 -19 -27 -7 -15 -26 -43 -44 -62 -17
-18 -31 -36 -31 -40 0 -4 -19 -28 -42 -52 -23 -24 -41 -47 -40 -51 1 -3 -18
-26 -41 -50 -23 -23 -41 -46 -40 -50 2 -4 -17 -28 -42 -54 -25 -25 -45 -51
-45 -58 0 -7 -18 -29 -40 -49 -22 -19 -40 -41 -40 -47 0 -14 -36 -61 -45 -60
-6 1 -47 -46 -45 -52 4 -9 -14 -38 -22 -38 -10 0 -53 -49 -53 -60 -1 -10 -24
-45 -25 -36 0 14 -60 -65 -60 -80 0 -8 -6 -14 -12 -14 -11 0 -62 -64 -64 -79
0 -3 -19 -25 -42 -49 -23 -23 -41 -46 -40 -50 1 -4 -21 -30 -49 -59 -28 -29
-49 -54 -47 -56 2 -2 -15 -24 -38 -48 -23 -24 -41 -47 -40 -51 1 -4 -16 -26
-38 -49 -22 -23 -40 -45 -40 -48 -1 -13 -58 -80 -63 -74 -4 3 -11 -6 -17 -21
-5 -15 -26 -43 -46 -61 -33 -31 -36 -38 -29 -72 9 -49 22 -66 86 -114 30 -22
61 -48 69 -58 8 -10 61 -52 117 -94 55 -42 103 -80 105 -85 1 -4 50 -43 108
-87 58 -43 114 -88 125 -100 11 -13 58 -51 105 -85 47 -35 94 -73 105 -85 11
-13 58 -51 105 -85 47 -35 95 -73 108 -86 12 -13 66 -57 120 -97 53 -41 114
-90 134 -108 20 -19 70 -59 112 -89 41 -30 74 -59 72 -65 -1 -5 47 -47 107
-92 60 -45 114 -89 121 -97 6 -9 62 -54 125 -101 63 -47 111 -85 106 -85 -5 0
42 -38 104 -84 62 -47 118 -92 125 -100 6 -9 62 -54 125 -101 63 -47 111 -85
106 -85 -5 0 43 -38 106 -85 63 -47 121 -94 129 -104 8 -10 62 -53 120 -96 58
-43 114 -88 125 -101 11 -12 73 -61 138 -109 64 -48 117 -90 117 -94 0 -16
169 -130 209 -141 40 -11 46 -9 81 15 21 15 43 39 48 53 5 15 37 56 71 91 33
35 61 69 61 77 0 7 24 38 54 68 29 30 61 71 70 91 10 20 24 39 31 41 8 3 37
37 66 75 29 38 57 69 61 69 5 0 12 8 15 18 10 26 93 130 109 136 8 3 19 17 24
31 12 32 82 124 95 124 10 1 34 32 37 48 2 13 69 98 74 95 8 -5 64 69 64 83 0
6 29 42 65 80 36 37 65 74 65 83 0 8 15 29 33 46 42 40 107 120 107 132 0 5
13 21 28 36 39 36 107 126 107 141 0 7 9 11 18 10 10 0 16 1 13 4 -7 7 104
149 115 146 4 -2 11 7 15 20 8 26 65 99 111 143 18 18 33 38 33 46 0 8 31 47
69 88 39 41 68 77 65 81 -2 4 14 27 37 51 62 65 109 124 104 130 -3 3 13 24
36 46 57 58 100 113 94 122 -3 5 8 19 24 32 37 29 109 120 122 154 5 15 12 24
15 21 8 -8 120 135 116 147 -2 5 4 6 12 3 10 -4 17 2 22 16 8 26 88 126 115
145 11 7 25 28 33 46 7 17 41 60 74 95 34 35 60 67 59 71 -3 11 56 89 68 90
11 0 71 81 68 91 -1 4 23 33 53 64 63 67 96 110 88 117 -3 3 7 15 22 27 34 26
124 143 118 152 -7 12 24 31 38 23 7 -4 10 -4 6 1 -4 4 17 39 47 78 30 39 55
74 55 79 0 5 4 7 9 4 5 -3 14 1 21 9 7 8 9 15 5 15 -5 0 -1 8 8 18 37 41 30
112 -15 143 -11 8 -40 29 -64 47 -23 17 -45 32 -47 32 -7 0 -66 50 -98 83 -15
15 -31 27 -36 27 -5 0 -29 18 -53 40 -24 22 -48 40 -54 40 -6 0 -26 15 -44 34
-18 19 -47 41 -65 50 -18 8 -28 16 -23 16 6 0 -9 14 -32 31 -23 17 -42 34 -42
39 0 4 -13 13 -28 19 -15 6 -40 25 -56 41 -15 16 -43 37 -62 46 -19 9 -32 19
-29 22 3 3 -15 20 -40 37 -24 18 -42 35 -38 39 3 3 -1 6 -9 6 -8 0 -36 18 -61
40 -25 22 -49 40 -54 40 -4 0 -29 20 -55 45 -26 25 -52 45 -57 45 -5 0 -22 12
-38 28 -33 31 -65 57 -114 91 -19 14 -40 33 -47 43 -7 10 -19 18 -26 18 -8 0
-32 18 -55 40 -22 22 -45 40 -50 40 -5 0 -29 18 -52 40 -24 22 -50 40 -58 40
-8 0 -12 3 -8 6 3 4 -10 18 -30 31 -20 14 -45 36 -56 49 -10 13 -22 22 -26 19
-4 -2 -21 9 -37 26 -16 17 -41 37 -56 45 -15 8 -38 24 -51 37 -58 54 -86 77
-94 77 -4 0 -25 18 -47 40 -21 22 -41 38 -45 35 -4 -2 -26 14 -49 36 -23 21
-46 39 -51 39 -5 0 -32 23 -61 50 -29 28 -56 50 -60 50 -4 0 -28 18 -53 40
-25 22 -49 40 -54 40 -5 0 -27 18 -48 40 -21 22 -44 40 -50 40 -6 0 -17 8 -26
18 -8 9 -45 39 -82 67 -37 27 -67 52 -67 57 0 4 -17 16 -37 27 -21 11 -51 33
-66 50 -16 17 -32 30 -35 28 -4 -1 -25 15 -46 36 -22 20 -42 37 -47 37 -8 0
-61 44 -97 80 -13 14 -28 24 -33 23 -4 -2 -24 13 -42 32 -19 19 -38 35 -44 35
-5 0 -29 18 -53 40 -24 22 -47 40 -51 40 -4 0 -22 14 -40 31 -46 43 -119 78
-144 69z"/>
<path d="M5535 18333 c-60 -2 -605 -14 -1210 -28 -2050 -47 -2778 -69 -2821
-86 -24 -8 -28 -18 -24 -52 1 -10 -4 -25 -11 -33 -16 -20 -7 -1647 21 -3569
l20 -1399 24 -25 c35 -35 80 -31 125 11 20 19 77 67 126 108 50 41 182 153
294 249 288 248 270 234 284 223 7 -5 86 -67 177 -139 208 -164 384 -287 486
-340 43 -23 104 -63 134 -88 39 -32 64 -45 86 -45 37 0 55 14 122 95 189 232
495 535 539 535 7 0 40 -13 72 -29 l58 -30 7 387 c4 258 1 595 -9 1012 -8 344
-18 1011 -22 1483 l-6 857 23 25 c51 54 285 72 1270 95 245 6 487 13 539 16
l94 6 -6 167 c-4 91 -10 257 -14 369 -6 190 -8 204 -27 218 -21 14 -45 15
-351 7z"/>
<path d="M10030 17399 c-503 -4 -1410 -14 -2015 -23 -605 -9 -1586 -23 -2180
-31 -594 -8 -1206 -17 -1360 -20 -154 -2 -290 -5 -303 -5 -34 0 -60 -60 -42
-97 10 -22 14 -199 21 -778 5 -412 13 -1132 19 -1600 5 -467 14 -1577 20
-2465 5 -888 14 -2036 20 -2550 17 -1515 39 -3235 46 -3664 l6 -399 159 6
c533 22 5328 76 6854 78 897 0 4223 34 4232 43 9 8 6 575 -6 1541 -6 407 -13
1305 -16 1995 -7 1301 -39 4054 -55 4570 -5 162 -10 446 -11 630 -1 184 -4
369 -8 410 l-6 75 -425 -535 c-233 -294 -562 -708 -730 -920 -168 -212 -399
-503 -514 -648 -133 -167 -216 -264 -229 -266 -12 -3 -72 -7 -132 -10 -150 -8
-363 -44 -712 -121 -33 -8 -56 -34 -43 -50 9 -11 149 -13 773 -10 419 2 776 6
794 10 41 9 139 -3 156 -19 6 -6 29 -22 50 -35 46 -28 87 -104 87 -159 0 -39
-17 -103 -30 -112 -4 -3 -9 -14 -11 -25 -6 -28 -72 -62 -143 -73 -73 -12
-2456 -9 -3251 3 -297 5 -745 10 -995 12 -378 2 -1414 18 -1429 22 -3 1 4 8
15 16 16 12 12 12 -26 -1 -39 -14 -110 -16 -545 -15 -275 0 -711 5 -968 10
-258 5 -501 5 -540 1 -40 -4 -352 -8 -695 -8 -342 -1 -637 -4 -655 -7 -90 -17
-207 98 -207 205 0 76 50 154 122 191 34 17 76 19 660 24 1142 9 3116 5 4157
-10 l324 -4 -7 47 c-3 26 -68 308 -144 627 l-137 580 -325 6 c-420 7 -3147 4
-3882 -5 -628 -8 -644 -6 -701 53 -101 108 -64 271 77 332 48 20 67 21 780 30
402 4 1454 7 2338 6 1276 -2 1608 1 1608 10 0 7 -54 243 -120 525 -67 281
-124 537 -129 570 -4 32 -10 60 -13 63 -5 5 -3077 -20 -3917 -32 -235 -3 -346
-1 -375 7 -45 12 -117 74 -141 120 -34 65 -3 198 51 222 13 6 24 14 24 19 0 4
19 15 43 25 39 17 92 19 657 25 338 4 1364 10 2278 14 1382 7 1666 11 1677 22
23 23 1260 1544 1263 1554 2 5 -46 8 -110 7 -62 -1 -525 -5 -1028 -9z m-1980
-6480 c250 -5 604 -9 785 -10 182 0 467 -5 635 -10 168 -5 591 -12 940 -14
349 -3 667 -9 705 -15 39 -5 192 -9 340 -9 149 1 351 1 450 1 99 0 529 0 955
-1 426 -1 973 -1 1215 1 511 3 497 5 554 -81 32 -48 36 -62 36 -116 0 -55 -5
-69 -38 -119 -20 -31 -45 -57 -55 -58 -31 -2 -37 -3 -47 -10 -46 -28 -791 -44
-1795 -37 -316 2 -636 3 -710 2 -543 -3 -733 -2 -982 8 -156 5 -537 12 -848
14 -364 3 -589 9 -632 16 -44 8 -147 10 -310 7 -133 -3 -445 -2 -693 3 -366 7
-1789 23 -2005 22 -30 0 -318 -4 -640 -8 -711 -9 -691 -9 -699 3 -3 5 -22 14
-41 21 -69 23 -119 96 -120 173 0 92 42 152 146 209 26 14 148 16 1214 17 652
1 1390 -3 1640 -9z m-370 -1524 c294 -3 686 -11 870 -16 347 -9 564 -13 1650
-23 355 -4 737 -10 850 -14 113 -4 252 -4 310 0 58 4 336 2 619 -4 283 -6 544
-8 580 -5 57 5 1536 22 1866 22 112 0 123 -2 160 -27 61 -39 93 -78 106 -130
16 -60 2 -111 -49 -172 -45 -53 -71 -67 -137 -73 -128 -10 -538 -25 -805 -28
-162 -2 -351 -6 -419 -9 -108 -6 -126 -4 -143 10 -16 16 -25 16 -91 3 -130
-25 -2090 -18 -3302 13 -247 6 -565 10 -705 9 -140 -2 -340 2 -445 9 -227 13
-475 16 -2703 32 -108 0 -269 0 -357 -2 -88 -1 -178 1 -200 5 -45 9 -85 32
-85 48 0 6 -11 22 -24 36 -50 55 -58 128 -22 199 35 69 57 83 176 116 48 14
1229 14 2300 1z m-1905 -1604 c456 2 859 -2 1170 -10 182 -6 519 -10 750 -10
500 -1 1582 -17 1995 -31 162 -5 466 -9 675 -9 209 -1 619 -5 910 -11 292 -5
710 -7 930 -5 220 3 699 7 1065 10 366 2 784 9 930 15 146 6 315 10 375 9 99
-1 115 -3 159 -27 89 -49 129 -157 88 -244 -22 -47 -72 -102 -110 -122 -32
-16 3 -16 -1122 -30 -228 -3 -545 -8 -705 -11 -642 -11 -3099 -2 -3135 12 -8
3 -521 9 -1140 14 -619 4 -1276 13 -1460 19 -184 6 -666 12 -1070 14 -404 2
-744 7 -755 11 -11 4 -36 14 -55 22 -78 31 -112 87 -112 184 0 73 16 112 64
155 36 33 200 57 313 47 22 -2 130 -3 240 -2z"/>
<path d="M9857 15509 c-9 -5 -15 -14 -12 -19 3 -5 1 -11 -4 -14 -5 -4 -8 -16
-6 -29 2 -12 6 -40 10 -62 3 -22 10 -57 16 -78 5 -20 7 -42 4 -47 -3 -6 -3
-15 1 -22 4 -7 9 -21 10 -33 2 -11 15 -74 29 -140 14 -66 30 -149 36 -184 5
-36 16 -90 24 -120 8 -31 17 -72 20 -91 3 -19 10 -50 15 -69 5 -19 7 -38 4
-42 -2 -4 1 -11 7 -14 5 -4 8 -13 5 -20 -2 -7 -2 -16 1 -19 4 -3 8 -21 10 -38
1 -18 14 -82 28 -143 13 -60 27 -126 29 -145 5 -34 39 -197 57 -272 8 -29 23
-47 79 -88 39 -29 73 -57 78 -64 4 -7 63 -54 132 -106 69 -51 134 -103 145
-115 11 -13 76 -64 145 -115 69 -51 134 -103 145 -115 11 -13 67 -58 125 -100
58 -43 114 -88 125 -100 11 -13 67 -58 125 -100 58 -43 114 -88 125 -100 11
-13 75 -64 142 -113 66 -50 123 -97 125 -104 5 -15 88 -17 218 -5 47 4 108 10
135 12 28 3 77 7 110 10 33 4 87 8 120 11 56 4 109 9 215 20 25 2 72 7 105 9
33 3 80 7 105 10 25 3 74 7 110 10 36 2 88 7 115 10 50 6 134 13 212 18 23 1
50 10 60 19 10 8 28 19 39 22 36 11 52 37 43 71 -6 22 -29 46 -76 80 -38 28
-78 60 -90 73 -12 13 -99 82 -194 153 -95 71 -169 129 -165 129 5 0 -70 59
-165 131 -95 72 -180 139 -188 149 -9 9 -83 68 -166 130 -82 63 -168 130 -190
150 -22 20 -105 85 -185 145 -80 60 -147 113 -149 117 -1 5 -76 63 -165 130
-88 66 -170 130 -181 142 -11 13 -87 73 -170 135 -82 63 -166 128 -185 146
-19 18 -102 83 -185 145 -82 62 -160 123 -172 136 -44 44 -672 513 -695 519
-13 2 -31 0 -41 -6z"/>
<path d="M15574 14883 c3 -148 8 -560 11 -918 3 -357 12 -1275 20 -2040 22
-2048 34 -3472 40 -4720 6 -1100 8 -1162 41 -1265 8 -25 14 -61 14 -80 -1 -85
-74 -171 -160 -189 -30 -7 -848 -14 -2251 -21 -7544 -35 -7820 -36 -8519 -20
-234 6 -452 14 -485 20 -65 11 -103 33 -121 71 -9 17 -15 361 -23 1209 -18
1927 -51 5280 -54 5479 l-2 184 -40 -58 c-22 -32 -46 -68 -52 -80 -7 -13 -24
-30 -38 -39 -14 -10 -30 -27 -36 -39 -16 -38 -63 -114 -82 -135 -11 -12 -16
-25 -13 -30 3 -5 -1 -15 -9 -22 -8 -7 -15 -17 -15 -22 0 -6 -10 -23 -22 -38
-27 -32 -62 -92 -60 -101 1 -4 -8 -15 -18 -24 -11 -10 -20 -26 -20 -35 0 -10
-14 -33 -31 -51 -16 -18 -37 -46 -45 -63 -7 -17 -23 -47 -35 -66 -12 -19 -22
-40 -23 -45 -1 -9 -39 -88 -65 -135 -30 -55 -41 -80 -41 -93 0 -8 -7 -20 -16
-27 -13 -12 -46 -77 -41 -83 1 -1 -8 -16 -21 -34 -12 -17 -22 -34 -22 -37 0
-4 -17 -43 -39 -89 -45 -96 -55 -120 -53 -129 3 -13 -28 -78 -38 -78 -5 0 -14
-19 -21 -42 -18 -66 -50 -161 -62 -183 -6 -11 -12 -22 -12 -25 -7 -33 -31 -97
-40 -102 -5 -4 -6 -8 -1 -8 4 0 1 -11 -8 -25 -9 -14 -14 -25 -11 -25 3 0 -1
-13 -10 -30 -9 -16 -12 -30 -8 -30 5 0 2 -4 -5 -9 -7 -4 -20 -37 -28 -72 -8
-35 -16 -68 -18 -74 -2 -5 -7 -25 -11 -43 -4 -19 -13 -36 -20 -39 -7 -2 -16
-25 -20 -51 -4 -26 -11 -55 -16 -64 -5 -10 -12 -35 -14 -55 -4 -34 -26 -136
-41 -188 -3 -11 -7 -33 -10 -49 -2 -17 -8 -32 -12 -35 -10 -7 -44 -162 -38
-169 3 -2 1 -13 -5 -24 -6 -11 -12 -29 -15 -41 -2 -12 -6 -33 -9 -47 -3 -14
-8 -41 -11 -60 -4 -19 -8 -46 -11 -60 -2 -14 -4 -33 -4 -42 0 -10 -4 -18 -8
-18 -5 0 -12 -24 -15 -52 -10 -80 -15 -111 -21 -138 -11 -53 -17 -109 -20
-215 -4 -128 -13 -227 -23 -235 -8 -6 -9 -17 -17 -240 -9 -208 -9 -556 0 -569
3 -6 1 -11 -5 -11 -11 0 -9 -59 15 -385 7 -104 13 -159 21 -212 5 -27 7 -53 6
-59 -1 -7 4 -39 12 -72 8 -33 12 -63 9 -66 -3 -2 2 -40 10 -83 9 -43 15 -85
15 -93 -2 -25 115 -575 123 -580 3 -3 12 -32 19 -65 6 -33 20 -87 30 -120 10
-33 27 -91 39 -130 12 -38 21 -78 21 -87 0 -10 5 -18 10 -18 6 0 10 -9 10 -21
0 -12 6 -35 13 -52 8 -18 22 -59 32 -92 10 -33 22 -64 27 -70 4 -5 8 -16 8
-25 0 -8 7 -28 15 -44 8 -15 15 -37 15 -47 0 -10 5 -21 10 -24 6 -3 10 -15 10
-26 0 -10 5 -19 10 -19 6 0 10 -9 10 -19 0 -11 7 -26 15 -35 8 -8 15 -18 15
-21 0 -7 26 -69 41 -97 5 -10 9 -25 9 -33 0 -8 5 -15 10 -15 6 0 10 -11 10
-24 0 -14 5 -28 10 -31 6 -3 10 -15 10 -26 0 -10 5 -19 10 -19 6 0 10 -6 10
-13 0 -18 24 -67 33 -67 4 0 7 -11 7 -25 0 -14 5 -25 10 -25 6 0 10 -9 10 -20
0 -11 5 -20 10 -20 6 0 10 -5 10 -12 0 -6 16 -44 35 -85 19 -41 35 -78 35 -83
0 -6 5 -10 10 -10 6 0 10 -9 10 -20 0 -11 4 -20 9 -20 5 0 17 -20 28 -45 10
-25 23 -45 28 -45 6 0 19 -20 30 -45 11 -25 23 -45 28 -45 4 0 7 -9 7 -19 0
-11 4 -21 8 -23 9 -4 82 -150 82 -165 0 -6 7 -13 15 -17 8 -3 15 -12 15 -21 0
-8 4 -15 10 -15 5 0 12 -11 16 -25 3 -14 9 -25 13 -25 4 0 16 -18 27 -40 10
-22 22 -40 27 -40 4 0 7 -7 7 -15 0 -8 15 -29 33 -47 17 -18 41 -50 52 -71 11
-20 23 -37 27 -37 5 0 8 -6 8 -14 0 -8 4 -16 9 -18 4 -1 33 -39 62 -83 64 -96
129 -180 129 -168 1 4 9 -6 18 -23 18 -32 25 -41 79 -99 18 -20 33 -39 33 -44
0 -5 7 -14 15 -21 8 -7 15 -19 15 -26 0 -13 26 -47 71 -94 8 -9 18 -24 22 -33
3 -9 13 -17 22 -17 8 0 15 -4 15 -8 0 -5 26 -36 58 -70 31 -34 66 -73 77 -87
30 -39 113 -125 119 -125 3 0 25 -21 48 -46 24 -26 71 -75 106 -110 34 -35 62
-68 62 -73 0 -5 18 -20 40 -32 22 -13 40 -26 40 -30 0 -5 23 -30 51 -56 28
-26 72 -70 99 -97 27 -26 52 -46 57 -43 5 3 16 -3 23 -14 8 -10 18 -19 21 -19
7 0 32 -21 139 -119 30 -28 59 -51 63 -51 4 0 32 -24 61 -52 60 -59 79 -74
118 -89 14 -6 29 -17 32 -25 3 -8 13 -14 21 -14 9 0 31 -14 48 -31 17 -17 49
-43 71 -58 23 -14 50 -34 60 -43 11 -10 26 -18 33 -18 7 0 18 -9 25 -20 7 -11
17 -20 23 -20 9 0 33 -18 85 -62 8 -7 35 -22 60 -34 25 -12 54 -31 64 -43 11
-11 25 -21 31 -21 7 0 18 -7 25 -15 6 -8 15 -14 18 -12 4 1 19 -6 35 -16 15
-9 39 -25 55 -34 15 -10 30 -16 34 -15 4 1 12 -7 18 -18 6 -11 18 -20 28 -20
9 0 28 -9 42 -20 14 -11 30 -20 37 -20 6 0 18 -8 25 -17 13 -18 37 -32 88 -53
14 -5 32 -14 40 -18 39 -22 70 -39 131 -68 36 -18 71 -40 78 -48 7 -9 17 -14
21 -11 4 3 57 -22 118 -55 61 -33 117 -60 125 -60 8 0 20 -7 27 -15 7 -8 19
-15 26 -15 8 0 22 -4 32 -9 51 -25 122 -54 137 -56 15 -3 48 -15 65 -25 20
-12 144 -74 150 -75 38 -10 68 -21 89 -31 14 -8 34 -14 43 -14 9 0 20 -5 23
-10 4 -6 11 -8 16 -5 5 4 9 2 9 -4 0 -6 12 -14 28 -17 15 -4 32 -9 37 -13 6
-3 17 -7 25 -9 8 -1 24 -5 35 -7 79 -16 205 -61 205 -73 0 -5 7 -9 15 -9 8 0
38 -7 67 -16 51 -15 126 -36 158 -44 23 -6 43 -12 100 -32 19 -7 53 -17 75
-22 21 -6 44 -14 50 -18 11 -9 63 -20 130 -26 59 -6 179 -38 187 -49 4 -6 10
-8 13 -4 5 5 28 1 100 -18 47 -12 92 -21 152 -30 26 -3 57 -9 68 -12 11 -2 41
-7 68 -9 26 -3 47 -8 47 -12 0 -4 6 -8 13 -8 25 -2 103 -14 118 -19 17 -5 68
-13 129 -20 19 -2 53 -6 75 -9 22 -3 75 -6 118 -6 42 -1 77 -5 77 -9 0 -5 8
-9 18 -9 9 0 40 -3 67 -5 28 -3 70 -8 95 -10 47 -5 152 -11 350 -22 63 -3 116
-9 117 -12 6 -14 870 -1 893 13 6 4 10 2 10 -4 0 -11 48 -8 145 9 28 5 86 12
130 16 44 3 91 8 105 9 14 2 56 6 93 9 38 3 72 8 76 11 5 2 32 7 62 10 104 10
144 15 195 25 28 6 55 10 60 8 20 -5 715 131 724 142 3 3 46 15 95 25 50 10
104 23 120 30 17 6 60 18 98 25 37 7 70 16 72 21 3 4 26 11 50 15 25 3 45 10
45 14 0 5 22 11 50 15 27 4 52 11 55 15 3 5 26 12 50 16 25 3 45 10 45 14 0 4
18 10 40 14 23 3 49 10 58 15 33 18 98 39 142 46 25 4 50 11 55 15 6 4 25 11
43 15 18 3 30 10 27 15 -3 5 9 12 27 15 18 4 41 12 53 18 47 24 56 27 75 27
11 0 20 5 20 10 0 6 7 10 15 10 8 0 23 4 33 9 9 5 31 14 47 21 17 7 38 16 47
21 10 5 25 9 33 9 8 0 15 5 15 10 0 6 11 10 25 10 14 0 25 5 25 10 0 6 11 10
25 10 14 0 25 5 25 10 0 6 11 10 25 10 14 0 25 5 25 10 0 6 5 10 12 10 10 0
103 40 140 60 10 6 24 10 32 10 8 0 16 3 18 8 4 10 67 42 83 42 8 0 18 6 22
13 7 12 44 30 243 125 30 15 59 32 63 39 4 7 17 13 27 13 11 0 20 5 20 10 0 6
6 10 14 10 16 0 73 29 92 46 7 6 38 24 70 40 32 16 68 39 80 51 12 12 35 25
51 29 15 4 34 12 42 17 15 13 45 31 81 49 14 7 31 18 38 25 7 7 20 13 28 13 8
0 14 4 14 9 0 5 10 13 23 17 12 4 24 10 27 14 3 4 25 19 50 33 25 15 61 40 80
57 19 16 38 30 43 30 4 0 16 9 26 19 10 10 40 31 65 46 25 15 46 31 46 36 0 5
6 9 14 9 8 0 21 6 28 13 7 8 24 19 36 26 13 7 31 19 40 27 78 69 108 94 114
94 4 0 22 13 40 28 18 16 56 41 83 57 28 15 60 38 72 49 11 12 39 35 62 51 22
17 40 36 41 43 0 6 7 12 15 12 8 0 22 9 32 19 10 11 35 33 57 50 21 17 36 31
32 31 -4 0 6 11 22 25 17 14 33 25 37 25 4 0 18 11 30 24 12 13 26 25 32 27 7
2 13 10 15 18 2 8 23 30 48 49 25 19 52 42 61 51 9 9 31 27 49 41 33 26 54 46
175 170 40 41 95 96 121 121 27 26 65 68 84 93 19 25 43 49 53 52 9 3 17 11
17 19 0 7 14 25 30 38 17 14 30 30 30 36 0 5 9 13 21 16 11 4 27 22 35 40 7
19 23 36 34 40 11 3 20 12 20 19 0 7 14 22 30 34 17 13 30 29 30 36 0 8 11 21
25 30 14 9 31 32 39 51 8 19 21 35 28 35 11 0 50 53 52 70 1 3 9 14 19 25 44
51 79 95 73 95 -4 0 20 28 54 62 33 34 60 66 60 70 0 8 20 35 100 140 11 14
20 31 20 36 0 5 7 15 15 22 8 7 15 20 15 30 0 9 9 25 20 35 11 10 20 23 20 30
0 7 13 26 29 42 33 35 122 169 125 189 1 7 12 24 24 37 12 13 22 28 22 34 0 5
9 18 20 28 11 10 22 27 26 39 4 11 15 33 25 47 10 15 20 35 22 45 5 30 33 77
61 103 14 14 26 31 26 38 0 7 4 21 9 31 5 9 12 24 15 32 4 8 15 29 25 45 11
17 20 38 20 47 1 9 8 21 16 25 18 10 55 80 55 104 0 9 7 22 15 29 9 7 14 15
11 17 -2 2 7 23 20 46 13 23 29 54 35 70 6 15 15 27 21 27 6 0 8 6 5 14 -3 8
5 36 17 63 26 53 48 107 47 111 -1 1 6 16 14 32 8 16 15 32 15 35 0 11 62 135
71 141 5 3 8 11 7 17 -1 7 4 23 12 37 7 14 13 26 12 28 -4 4 11 57 21 77 12
21 17 38 21 68 1 10 8 22 15 27 12 7 29 65 47 155 3 17 7 35 8 40 1 6 8 20 14
33 7 12 10 22 7 22 -3 0 1 10 9 23 15 24 31 76 27 91 -1 4 5 19 13 32 9 12 18
39 20 58 2 19 7 40 11 46 6 10 14 39 19 70 2 13 22 82 33 115 1 6 8 37 14 70
7 33 15 62 20 65 10 7 49 221 43 232 -3 4 0 16 5 27 6 10 13 39 15 63 3 23 7
54 9 68 2 14 7 50 12 80 4 30 10 60 13 65 4 6 8 19 9 30 2 11 8 49 13 85 16
97 25 186 36 380 3 52 10 98 15 101 6 3 12 95 15 205 3 109 7 228 8 264 1 36
-1 81 -5 100 -4 19 -10 108 -13 198 -3 89 -8 167 -11 172 -3 6 -2 10 4 10 12
0 8 59 -24 355 -2 22 -7 65 -10 95 -2 30 -9 78 -14 105 -5 28 -9 57 -9 65 1 8
-7 53 -17 100 -9 47 -18 101 -19 120 -3 49 -78 404 -87 410 -4 3 -16 52 -28
109 -12 57 -25 109 -30 115 -5 6 -12 31 -16 56 -4 25 -13 56 -20 70 -7 14 -16
44 -20 67 -4 24 -11 45 -15 48 -5 3 -12 26 -16 50 -3 25 -10 45 -14 45 -4 0
-10 12 -13 28 -5 28 -24 85 -38 113 -4 9 -11 33 -14 52 -4 20 -12 35 -19 34
-6 -1 -12 10 -14 26 -2 15 -7 27 -12 27 -4 0 -11 18 -15 40 -4 22 -11 42 -16
46 -5 3 -9 14 -9 25 0 10 -4 19 -10 19 -5 0 -10 9 -10 19 0 11 -4 23 -10 26
-5 3 -10 14 -10 24 0 10 -7 32 -15 47 -8 16 -15 36 -15 45 0 9 -22 66 -48 125
-27 60 -55 124 -63 142 -7 17 -17 32 -21 32 -5 0 -8 12 -8 26 0 14 -4 23 -10
19 -5 -3 -10 0 -10 8 0 8 -16 45 -35 83 -19 37 -35 74 -35 81 0 7 -6 13 -12
13 -7 0 -26 29 -43 63 -16 34 -35 68 -42 75 -6 7 -17 28 -24 47 -7 19 -17 35
-21 35 -4 0 -8 4 -8 10 0 5 -18 39 -40 75 -22 36 -40 70 -40 75 0 6 -4 10 -9
10 -5 0 -12 11 -15 25 -4 14 -11 25 -16 25 -6 0 -10 6 -10 13 0 7 -13 27 -29
43 -16 16 -39 49 -51 72 -12 23 -26 42 -31 42 -5 0 -9 5 -9 11 0 6 -11 25 -24
42 -13 18 -27 42 -31 55 -3 12 -10 22 -14 22 -4 0 -16 19 -27 42 -10 23 -31
56 -46 72 -16 17 -28 34 -28 39 0 9 -13 26 -55 70 -17 18 -43 51 -58 73 -16
23 -40 55 -55 72 -15 17 -34 40 -42 53 -28 41 -64 84 -115 135 -27 28 -59 63
-69 78 -19 26 -63 80 -101 122 -11 12 -27 32 -35 44 -22 32 -68 79 -73 74 -2
-2 -17 12 -33 31 -16 19 -58 66 -94 103 -36 37 -75 80 -86 94 -11 14 -34 32
-51 41 -35 19 -103 82 -103 97 0 5 -3 10 -7 10 -13 1 -113 97 -113 109 0 6 -9
11 -20 11 -11 0 -20 6 -20 13 0 7 -20 28 -44 47 -25 18 -47 39 -50 47 -3 8 -9
12 -14 9 -4 -2 -32 17 -61 44 -30 27 -58 47 -62 44 -5 -3 -9 0 -9 6 0 6 -7 13
-15 16 -9 4 -39 28 -68 55 -28 27 -70 61 -92 76 -22 16 -43 32 -46 36 -3 5
-10 9 -15 8 -5 0 -31 19 -57 42 -27 23 -56 46 -65 51 -9 5 -25 18 -36 28 -11
10 -28 20 -38 24 -10 3 -18 10 -18 15 0 5 -7 9 -16 9 -9 0 -37 17 -63 38 -52
43 -102 76 -114 77 -5 0 -14 8 -21 17 -7 9 -24 20 -39 23 -15 4 -27 11 -27 17
0 5 -16 16 -35 24 -19 8 -35 19 -35 24 0 6 -3 9 -7 8 -5 -1 -20 5 -35 15 -16
9 -40 25 -55 34 -16 10 -31 16 -35 15 -5 -1 -29 14 -55 34 -26 20 -56 40 -68
45 -11 5 -33 18 -50 28 -59 38 -57 46 -51 -246z"/>
<path d="M10190 13665 c0 -2 9 -44 21 -92 11 -48 22 -101 24 -118 5 -42 12
-78 34 -175 37 -161 51 -225 56 -260 3 -19 15 -78 26 -130 44 -214 71 -288
104 -291 19 -2 25 -3 55 -16 14 -6 39 -9 55 -6 17 2 64 6 105 8 41 3 100 7
130 10 30 3 80 7 110 9 64 5 187 15 245 21 22 2 78 6 125 10 47 3 100 8 117
11 l33 5 -23 23 c-12 12 -53 47 -92 77 -38 30 -71 57 -73 61 -2 4 -41 35 -88
70 -46 34 -84 65 -84 69 0 4 -40 37 -90 74 -49 37 -90 70 -90 74 0 4 -38 35
-85 70 -47 34 -85 66 -85 70 0 4 -38 35 -84 69 -47 35 -86 66 -88 71 -2 4 -34
31 -73 61 -38 30 -77 61 -85 70 -8 9 -46 40 -85 70 -38 30 -76 62 -83 72 -12
16 -32 25 -32 13z"/>
</g>
</svg>
