<?xml version="1.0" standalone="no"?>
<!DOCTYPE svg PUBLIC "-//W3C//DTD SVG 20010904//EN"
 "http://www.w3.org/TR/2001/REC-SVG-20010904/DTD/svg10.dtd">
<svg version="1.0" xmlns="http://www.w3.org/2000/svg"
 width="50px" height="39px" viewBox="0 0 2048.000000 2048.000000"
 preserveAspectRatio="xMidYMid meet">

<g transform="translate(0.000000,2048.000000) scale(0.100000,-0.100000)"
fill="#000000" stroke="none">
<path d="M13317 19679 c-29 -29 -31 -30 -44 -13 -30 42 -109 13 -144 -53 -8
-15 -36 -50 -64 -78 -27 -28 -57 -63 -65 -79 -8 -15 -27 -37 -42 -48 -15 -10
-28 -26 -28 -34 0 -8 -20 -35 -45 -61 -25 -25 -43 -48 -41 -52 3 -4 -18 -28
-45 -55 -27 -26 -47 -51 -45 -54 5 -9 -19 -43 -31 -44 -12 -1 -53 -59 -53 -75
0 -7 -6 -13 -12 -13 -16 -1 -74 -79 -70 -94 2 -6 0 -8 -3 -4 -4 4 -25 -15 -47
-42 -22 -28 -44 -50 -49 -50 -6 0 -8 -4 -5 -9 3 -5 -15 -30 -41 -57 -26 -27
-46 -52 -45 -57 1 -4 -16 -25 -37 -46 -21 -21 -42 -48 -45 -58 -3 -10 -24 -36
-46 -57 -22 -21 -40 -43 -40 -51 0 -7 -20 -32 -44 -56 -25 -23 -44 -45 -43
-48 3 -11 -25 -53 -30 -47 -6 6 -53 -52 -53 -66 0 -4 -20 -28 -45 -53 -25 -24
-44 -48 -43 -52 2 -5 -16 -28 -39 -51 -23 -24 -42 -47 -41 -50 1 -4 -17 -27
-40 -52 -23 -25 -42 -51 -42 -58 0 -7 -6 -15 -14 -18 -20 -8 -77 -90 -68 -99
4 -5 2 -5 -4 -2 -7 4 -24 -11 -40 -34 -15 -22 -36 -45 -46 -50 -10 -6 -16 -13
-14 -18 3 -4 -14 -27 -37 -52 -22 -24 -40 -47 -39 -51 1 -4 -19 -27 -43 -53
-25 -25 -45 -51 -45 -56 0 -6 -20 -31 -45 -56 -25 -24 -45 -49 -45 -56 -1 -16
-35 -57 -48 -57 -10 0 -26 -29 -24 -42 1 -3 -18 -25 -41 -49 -23 -23 -41 -45
-40 -50 1 -4 -18 -27 -42 -50 -25 -24 -45 -50 -45 -57 0 -7 -20 -33 -45 -58
-24 -25 -43 -49 -42 -53 1 -5 -17 -27 -41 -50 -23 -22 -41 -44 -40 -48 4 -10
-31 -59 -38 -55 -8 4 -40 -39 -48 -65 -4 -13 -12 -23 -18 -23 -12 0 -49 -44
-65 -79 -6 -15 -12 -22 -12 -17 -1 13 -61 -64 -61 -78 0 -7 -12 -21 -27 -33
-16 -11 -35 -32 -43 -47 -8 -16 -36 -50 -61 -76 -26 -27 -45 -50 -43 -52 2 -2
-16 -25 -40 -51 -23 -26 -41 -49 -39 -51 2 -2 -16 -23 -39 -48 -24 -24 -50
-57 -58 -73 -8 -15 -27 -37 -42 -48 -16 -12 -28 -26 -28 -32 0 -17 -46 -76
-53 -68 -4 3 -13 -9 -21 -28 -8 -19 -31 -49 -50 -67 -20 -18 -35 -37 -33 -41
1 -5 -17 -27 -40 -50 -63 -60 -54 -117 25 -171 19 -14 47 -36 61 -50 14 -14
67 -56 116 -94 50 -38 97 -76 105 -85 8 -9 65 -54 125 -101 61 -46 117 -92
125 -101 8 -9 56 -47 105 -85 50 -38 97 -76 105 -85 8 -9 53 -45 100 -80 47
-35 94 -73 105 -84 11 -12 58 -50 105 -84 47 -35 94 -73 105 -86 11 -12 67
-57 125 -100 58 -43 108 -84 112 -91 4 -6 57 -49 118 -94 60 -45 108 -85 105
-90 -2 -4 47 -47 110 -95 62 -47 115 -90 117 -94 2 -3 53 -45 113 -91 61 -47
117 -92 125 -101 8 -9 56 -47 105 -84 50 -37 97 -75 105 -84 8 -9 65 -54 125
-100 61 -46 117 -91 125 -101 8 -9 65 -54 125 -100 61 -47 117 -92 125 -101 8
-9 65 -54 125 -100 61 -46 117 -91 125 -100 15 -16 168 -133 182 -139 4 -2 28
-6 54 -10 40 -6 47 -5 51 11 3 10 9 16 14 13 5 -3 13 5 18 18 5 13 38 54 75
92 36 38 63 73 60 77 -2 4 23 36 56 71 33 34 63 72 66 83 8 24 39 65 51 67 13
2 81 93 93 123 6 15 13 25 17 22 7 -8 112 123 113 140 0 7 7 10 15 7 9 -4 15
0 15 9 0 8 23 43 50 77 28 34 50 59 50 54 0 -5 8 3 17 16 10 14 17 27 16 30
-2 7 66 90 104 126 18 17 33 38 33 46 0 8 27 43 61 79 33 35 67 78 74 94 16
34 49 75 62 75 9 0 69 82 66 91 -1 3 25 35 59 70 33 35 67 79 75 97 7 18 20
35 27 38 18 7 112 126 108 137 -1 5 7 11 18 14 11 3 20 9 20 14 0 15 99 136
115 143 9 3 20 17 25 32 14 35 82 123 96 124 6 0 21 20 33 43 13 24 49 72 82
106 33 35 57 66 54 70 -2 4 27 41 65 82 39 41 70 78 70 83 0 15 44 76 55 76
13 1 80 89 89 118 4 12 16 27 26 32 21 11 103 115 113 144 5 11 13 16 23 12 8
-3 13 -2 10 2 -6 10 86 130 117 154 12 9 22 21 22 27 0 14 98 141 105 136 4
-2 13 8 21 23 20 41 68 103 111 143 21 20 38 43 38 51 0 9 28 44 61 79 34 35
68 78 75 94 15 34 48 75 61 75 11 1 75 87 90 123 7 15 19 30 27 33 19 7 101
113 111 142 4 15 12 21 21 18 8 -3 14 0 14 7 1 7 14 27 30 46 19 22 27 41 23
55 -2 11 -5 27 -6 35 -3 25 -107 118 -118 106 -3 -2 -22 14 -43 35 -21 22 -46
42 -57 45 -10 4 -19 13 -19 21 0 8 -6 14 -14 14 -8 0 -34 18 -57 40 -24 22
-47 40 -52 40 -5 0 -20 9 -34 20 -14 11 -22 20 -17 20 4 0 -8 11 -27 25 -66
48 -94 70 -122 97 -16 16 -33 28 -38 28 -6 0 -31 20 -58 45 -26 25 -50 43 -52
40 -3 -2 -26 16 -53 41 -27 24 -53 44 -58 44 -5 0 -28 18 -51 41 -23 22 -62
54 -87 71 -25 17 -49 37 -53 44 -4 8 -22 21 -39 30 -17 9 -47 31 -66 50 -19
19 -39 34 -43 34 -4 0 -19 10 -32 23 -58 54 -86 77 -94 77 -5 0 -28 18 -52 40
-23 22 -46 40 -51 40 -4 0 -29 20 -56 45 -26 25 -51 45 -56 45 -4 0 -16 8 -27
18 -59 55 -86 77 -92 75 -3 -1 -27 18 -53 42 -25 25 -51 45 -56 45 -6 0 -28
18 -51 40 -22 22 -44 38 -47 37 -4 -1 -17 7 -28 18 -60 56 -88 80 -95 78 -4
-1 -24 16 -46 37 -21 22 -42 40 -48 40 -5 0 -32 20 -59 45 -28 24 -51 43 -53
41 -2 -2 -27 18 -55 45 -28 27 -56 49 -63 49 -6 0 -29 18 -51 40 -21 22 -43
40 -47 40 -5 0 -29 18 -54 40 -25 22 -49 40 -54 40 -4 0 -31 23 -60 50 -29 28
-56 50 -60 50 -5 0 -27 17 -49 38 -23 20 -45 37 -49 37 -5 0 -26 17 -47 38
-21 20 -43 37 -49 37 -6 0 -17 8 -26 18 -8 9 -45 39 -82 67 -37 27 -67 52 -67
57 0 4 -15 15 -32 24 -18 9 -48 32 -66 50 -18 19 -36 33 -41 31 -4 -1 -21 12
-39 29 -41 41 -105 74 -143 74 -21 0 -40 -10 -62 -31z m3104 -2572 c-10 -9
-11 -8 -5 6 3 10 9 15 12 12 3 -3 0 -11 -7 -18z m-131 -171 c0 -3 -4 -8 -10
-11 -5 -3 -10 -1 -10 4 0 6 5 11 10 11 6 0 10 -2 10 -4z m-135 -176 c-3 -5
-11 -10 -16 -10 -6 0 -7 5 -4 10 3 6 11 10 16 10 6 0 7 -4 4 -10z m-141 -175
c-4 -8 -11 -15 -16 -15 -6 0 -5 6 2 15 7 8 14 15 16 15 2 0 1 -7 -2 -15z
m-143 -178 c-10 -9 -11 -8 -5 6 3 10 9 15 12 12 3 -3 0 -11 -7 -18z m-121
-161 c0 -3 -4 -8 -10 -11 -5 -3 -10 -1 -10 4 0 6 5 11 10 11 6 0 10 -2 10 -4z
m-140 -176 c0 -5 -5 -10 -11 -10 -5 0 -7 5 -4 10 3 6 8 10 11 10 2 0 4 -4 4
-10z m-260 -334 c0 -3 -4 -8 -10 -11 -5 -3 -10 -1 -10 4 0 6 5 11 10 11 6 0
10 -2 10 -4z m-570 -706 c0 -5 -5 -10 -11 -10 -5 0 -7 5 -4 10 3 6 8 10 11 10
2 0 4 -4 4 -10z m-260 -334 c0 -3 -4 -8 -10 -11 -5 -3 -10 -1 -10 4 0 6 5 11
10 11 6 0 10 -2 10 -4z m-425 -526 c-3 -5 -11 -10 -16 -10 -6 0 -7 5 -4 10 3
6 11 10 16 10 6 0 7 -4 4 -10z m-255 -324 c0 -3 -4 -8 -10 -11 -5 -3 -10 -1
-10 4 0 6 5 11 10 11 6 0 10 -2 10 -4z m-140 -176 c0 -5 -5 -10 -11 -10 -5 0
-7 5 -4 10 3 6 8 10 11 10 2 0 4 -4 4 -10z m-120 -154 c0 -3 -4 -8 -10 -11 -5
-3 -10 -1 -10 4 0 6 5 11 10 11 6 0 10 -2 10 -4z"/>
<path d="M5460 18323 c-58 -2 -505 -12 -995 -23 -1643 -37 -2615 -63 -2843
-76 -120 -6 -148 -18 -137 -56 4 -10 2 -24 -3 -31 -5 -7 -13 -30 -16 -52 -7
-41 6 -1590 24 -2895 29 -2080 28 -2010 45 -2036 11 -18 25 -24 50 -24 29 0
57 19 196 135 89 74 251 212 361 307 109 95 202 174 206 175 4 2 84 -58 177
-132 205 -163 380 -286 497 -350 47 -26 110 -67 140 -91 72 -60 107 -60 157
-2 149 172 288 327 362 403 l87 90 7 1795 c4 1152 10 1814 16 1848 8 38 28 79
72 145 95 140 136 159 432 191 305 34 645 48 1137 50 l488 1 -1 55 c0 30 -6
169 -12 308 -10 204 -15 255 -27 262 -14 9 -158 10 -420 3z"/>
<path d="M9665 17389 c-275 -4 -1029 -15 -1675 -24 -646 -8 -1618 -22 -2160
-30 -542 -8 -1137 -15 -1322 -15 l-337 0 -21 -27 c-15 -20 -20 -35 -15 -53 22
-83 37 -1185 55 -4190 9 -1523 23 -2995 37 -3962 l6 -448 24 0 c12 0 23 5 23
10 0 6 5 10 10 10 6 0 10 -9 10 -20 0 -13 7 -20 20 -20 11 0 20 5 20 10 0 6
23 10 50 10 28 0 50 5 50 10 0 15 57 12 64 -2 3 -7 3 -3 0 10 -6 24 19 32 30
10 5 -10 7 -10 12 0 7 14 54 16 54 2 0 -5 9 -10 20 -10 14 0 20 -7 20 -22 l0
-21 19 21 c10 12 30 22 44 22 14 0 28 6 30 13 3 6 6 2 6 -10 1 -28 21 -31 21
-4 0 10 7 21 15 25 9 3 15 0 15 -9 0 -11 11 -15 40 -15 31 0 40 -4 40 -17 0
-10 3 -28 6 -40 5 -17 2 -23 -10 -23 -20 0 -20 -7 -1 -26 19 -20 19 -44 0 -44
-8 0 -15 -4 -15 -10 0 -5 5 -10 10 -10 6 0 10 -7 10 -15 0 -10 -10 -15 -30
-15 -20 0 -30 -5 -30 -15 0 -8 -4 -15 -10 -15 -5 0 -10 9 -10 20 0 15 -7 20
-29 20 -16 0 -32 6 -34 13 -4 9 -8 9 -14 0 -4 -6 -21 -15 -36 -18 -23 -6 -27
-13 -28 -44 -1 -23 -3 -28 -6 -13 -3 15 -11 22 -29 22 -13 0 -24 -4 -24 -10 0
-21 -30 -9 -36 15 -9 37 -24 30 -24 -10 0 -19 -4 -35 -10 -35 -5 0 -10 5 -10
10 0 14 -27 12 -33 -2 -3 -9 -11 -5 -26 11 -11 13 -24 21 -28 17 -4 -4 -1 -11
7 -17 13 -8 13 -10 0 -19 -11 -7 -16 -5 -18 5 -5 21 -42 19 -42 -1 0 -14 -7
-15 -37 -10 -21 3 -44 6 -50 6 -7 0 -13 9 -13 20 0 11 -4 20 -9 20 -5 0 -12
10 -14 23 -12 63 0 -1506 19 -2382 l6 -294 157 7 c354 16 947 26 2209 37 732
7 1332 15 1332 18 0 4 550 7 1223 8 1252 2 4585 29 4985 39 234 7 246 10 204
51 -13 12 -23 45 -30 103 -17 118 -16 120 14 120 34 0 26 24 -9 28 -35 4 -36
32 -1 32 25 0 25 2 19 41 -6 33 -4 40 6 37 8 -3 15 -17 17 -31 3 -22 8 -27 33
-27 19 0 29 -5 29 -15 0 -9 9 -15 25 -15 20 0 27 -6 32 -30 4 -21 11 -30 24
-30 28 0 60 -37 66 -76 3 -19 11 -34 19 -34 7 0 14 -12 16 -27 2 -22 9 -29 31
-31 22 -3 27 -8 27 -32 0 -16 8 -36 17 -46 16 -16 45 -17 397 -10 209 3 381 8
383 9 19 20 -38 6621 -67 7687 -5 212 -13 506 -16 653 l-6 268 -132 -198 c-73
-109 -229 -343 -347 -520 -118 -176 -251 -379 -296 -450 -45 -70 -105 -156
-133 -191 -28 -35 -60 -87 -71 -117 -21 -56 -55 -93 -106 -114 -18 -7 -50 -40
-79 -79 -72 -101 -184 -263 -184 -268 0 -2 57 -3 128 -1 l127 2 61 -40 c121
-78 148 -192 74 -317 -5 -10 -14 -26 -19 -35 -4 -10 -12 -18 -17 -19 -5 0 -16
-3 -24 -6 -8 -4 -31 -12 -50 -19 -42 -15 -2374 -21 -3000 -8 -206 5 -859 13
-1450 19 -591 5 -1129 13 -1195 18 -66 4 -160 4 -210 0 -49 -4 -387 -3 -750 2
-652 10 -2456 5 -2527 -6 -25 -4 -51 1 -82 15 -84 37 -135 117 -136 211 0 58
14 88 67 146 57 64 0 59 863 69 764 10 2185 11 2480 2 162 -4 584 -10 937 -12
l643 -3 -19 37 c-24 47 -85 220 -116 331 -33 119 -121 503 -159 700 l-32 165
-98 5 c-143 7 -2908 4 -3693 -4 -749 -8 -745 -8 -805 56 -40 42 -68 103 -68
148 0 78 74 176 155 204 66 24 1063 34 3373 36 l1092 1 0 33 c0 32 -58 356
-100 561 -11 55 -41 177 -65 272 -27 103 -45 194 -45 228 l0 55 -427 -5 c-689
-9 -2833 -25 -3271 -25 -450 0 -426 -4 -501 74 l-45 46 0 82 c-1 63 4 90 17
113 24 38 100 90 153 104 29 8 685 14 2135 21 1152 5 2103 10 2115 10 18 0 22
8 27 49 8 71 37 120 146 256 53 66 159 200 235 299 76 98 256 316 400 485 302
353 386 455 386 464 0 8 -414 7 -1105 -4z m-1350 -6464 c446 -3 970 -10 1165
-16 195 -5 610 -12 922 -14 312 -2 670 -9 795 -14 125 -6 291 -8 368 -5 77 3
430 0 783 -7 383 -7 647 -8 650 -3 4 5 245 9 567 9 308 0 645 2 748 3 180 4
191 3 242 -20 43 -18 61 -34 89 -77 31 -46 36 -62 36 -110 -1 -100 -64 -190
-144 -207 -135 -28 -756 -38 -2316 -37 -581 0 -843 3 -1200 13 -173 5 -569 12
-880 16 -356 3 -572 10 -584 16 -13 7 -110 8 -290 3 -161 -4 -372 -3 -521 4
-195 8 -1966 27 -2200 23 -27 -1 -338 -3 -690 -5 -515 -3 -644 -1 -665 10 -14
7 -30 13 -36 13 -22 0 -82 66 -98 108 -41 109 -5 204 104 275 35 22 41 22 455
27 451 5 1400 4 2700 -5z m-530 -1520 c242 -3 589 -10 770 -14 557 -14 1082
-22 1480 -25 209 -2 517 -6 685 -10 408 -10 2829 -9 3250 1 528 13 568 12 616
-14 22 -12 57 -40 77 -62 36 -40 37 -44 37 -117 0 -86 -11 -112 -68 -166 -56
-51 -67 -55 -157 -57 -44 -1 -154 -7 -245 -13 -251 -15 -1068 -21 -1101 -7
-21 8 -41 8 -81 -1 -47 -10 -1305 -12 -2623 -4 -430 2 -1533 23 -1815 34 -151
6 -475 13 -720 16 -716 7 -1777 14 -2015 13 -121 0 -285 -1 -365 -1 -150 -1
-260 18 -260 45 0 7 -14 26 -30 44 -17 18 -35 44 -40 58 -17 45 -12 121 11
162 22 41 63 84 82 87 25 4 92 29 101 36 9 9 1669 5 2411 -5z m-840 -1613
c193 -6 546 -11 785 -11 239 -1 806 -8 1260 -17 454 -9 1019 -17 1255 -19 237
-2 709 -9 1050 -15 341 -7 665 -9 720 -6 55 4 521 8 1035 11 591 2 992 8 1090
15 85 7 244 12 352 12 175 -1 201 -3 235 -21 49 -25 88 -66 109 -116 34 -83
12 -162 -66 -237 -47 -45 -51 -46 -127 -54 -43 -4 -181 -8 -308 -9 -753 -6
-1541 -19 -1550 -25 -5 -3 -233 -5 -505 -4 -1743 9 -2409 15 -2660 24 -157 6
-690 13 -1185 15 -495 3 -1140 12 -1434 20 -388 11 -538 11 -548 4 -9 -8 -63
-9 -175 -4 -90 3 -337 8 -549 9 -213 2 -391 6 -395 8 -5 3 -23 9 -41 12 -17 4
-37 14 -44 22 -6 8 -17 14 -24 14 -24 0 -63 60 -76 116 -15 68 -3 128 39 188
34 50 79 67 202 75 138 9 1147 4 1555 -7z"/>
<path d="M9851 15473 c-9 -30 1 -142 14 -162 3 -6 12 -59 21 -116 1 -11 3 -22
4 -25 1 -3 3 -9 5 -15 1 -5 3 -12 4 -15 1 -3 5 -23 7 -45 3 -22 13 -74 24
-115 10 -41 21 -96 23 -121 3 -25 12 -72 21 -105 8 -32 17 -77 21 -99 3 -22
16 -82 30 -134 13 -52 22 -98 19 -102 -2 -5 7 -53 21 -108 14 -54 27 -116 30
-136 2 -21 7 -45 9 -54 3 -9 7 -29 10 -45 3 -16 10 -54 16 -85 26 -128 18
-118 170 -231 77 -57 140 -107 140 -111 0 -4 53 -46 117 -95 65 -48 128 -98
139 -110 12 -11 80 -65 150 -119 71 -54 136 -105 144 -115 8 -9 65 -54 125
-99 61 -46 117 -91 125 -100 8 -9 71 -60 140 -114 69 -54 161 -126 205 -161
44 -35 82 -63 85 -61 3 2 43 6 90 9 47 4 103 8 125 11 22 2 69 7 105 10 36 3
191 16 345 30 154 14 388 34 520 46 204 18 244 24 269 41 16 12 37 21 47 22
23 1 48 34 42 56 -7 25 -114 118 -288 250 -82 62 -157 121 -165 130 -8 10 -90
74 -182 144 -91 69 -168 130 -170 134 -1 5 -77 64 -168 132 -91 67 -174 133
-185 145 -11 13 -93 77 -182 144 -89 67 -163 125 -165 129 -2 4 -79 66 -173
137 -93 71 -177 137 -185 146 -8 10 -82 68 -165 130 -82 62 -159 122 -170 135
-11 12 -94 77 -185 145 -91 67 -167 126 -168 131 -2 4 -106 85 -230 180 -125
94 -236 181 -247 193 -23 23 -208 163 -245 184 -14 8 -37 15 -52 16 -24 2 -29
-3 -37 -32z"/>
<path d="M15865 14263 c5 -659 32 -6577 37 -8083 l2 -645 -23 -50 c-38 -85
-99 -136 -194 -161 -39 -10 -130 -14 -366 -14 -281 0 -313 -2 -307 -16 3 -9 6
-24 6 -35 0 -10 6 -19 14 -19 10 0 16 -13 18 -37 3 -35 28 -61 28 -29 0 21 6
20 31 -5 11 -11 23 -36 26 -55 3 -19 12 -34 19 -34 8 0 14 -15 16 -37 3 -35 6
-38 38 -41 20 -2 43 -13 57 -28 12 -13 27 -24 33 -24 5 0 10 -11 10 -25 0 -20
5 -25 25 -25 16 0 25 -6 25 -15 0 -11 11 -15 40 -15 36 0 40 -3 40 -24 0 -40
11 -56 37 -56 13 0 21 4 18 10 -3 6 5 10 18 10 25 0 37 -16 37 -50 0 -14 11
-20 50 -25 39 -5 50 -11 50 -25 0 -37 12 -50 46 -50 24 0 34 -5 34 -15 0 -8 7
-15 15 -15 8 0 15 -7 15 -15 0 -10 10 -15 34 -15 28 0 35 -4 40 -25 4 -14 11
-25 16 -25 6 0 10 11 10 25 0 14 5 25 10 25 6 0 10 -4 10 -10 0 -5 7 -10 15
-10 8 0 15 -7 15 -15 0 -9 9 -15 21 -15 11 0 27 -7 35 -15 20 -20 48 -20 40 0
-4 11 1 15 19 15 16 0 25 -6 25 -15 0 -9 9 -15 25 -15 14 0 25 -4 25 -10 0 -5
11 -10 25 -10 18 0 25 -5 25 -19 0 -23 22 -40 28 -23 6 20 20 13 24 -10 2 -15
11 -24 26 -26 12 -2 22 -8 22 -13 0 -5 7 -9 15 -9 8 0 15 5 15 10 0 6 9 10 20
10 11 0 20 -6 20 -12 0 -7 5 -20 10 -28 9 -13 11 -13 21 0 8 11 12 12 16 3 2
-7 11 -13 19 -13 8 0 14 -7 14 -15 0 -8 5 -15 10 -15 6 0 10 7 10 15 0 9 10
15 26 15 14 0 23 4 19 10 -4 6 8 10 29 10 20 0 36 -4 36 -10 0 -5 7 -10 15
-10 9 0 15 -9 15 -25 0 -16 6 -25 16 -25 8 0 12 5 9 10 -3 6 5 10 19 10 13 0
27 -6 30 -12 5 -10 7 -10 12 0 10 22 34 13 34 -13 0 -18 5 -25 20 -25 11 0 20
7 20 15 0 10 11 15 35 15 24 0 35 -5 35 -15 0 -9 9 -15 25 -15 14 0 25 -4 25
-10 0 -5 9 -10 20 -10 11 0 20 5 20 10 0 6 11 10 25 10 20 0 25 -5 25 -25 0
-14 5 -25 10 -25 6 0 10 5 10 10 0 14 47 12 54 -2 5 -10 7 -10 12 0 3 6 21 12
40 12 30 0 34 -3 34 -25 0 -14 5 -25 10 -25 6 0 10 7 10 15 0 24 19 17 26 -10
3 -14 13 -25 21 -25 17 0 43 24 43 39 0 6 9 11 20 11 11 0 20 5 20 10 0 6 11
10 25 10 19 0 25 -5 25 -21 0 -11 6 -27 14 -35 18 -17 72 -19 80 -1 5 9 7 9
12 0 7 -15 74 -18 74 -3 0 6 5 10 10 10 6 0 10 -11 10 -25 0 -18 5 -25 20 -25
11 0 20 7 20 15 0 12 14 15 65 15 37 0 65 4 65 10 0 6 13 10 29 10 17 0 33 -4
36 -10 3 -5 10 -10 16 -10 5 0 9 5 9 10 0 6 -7 10 -15 10 -8 0 -15 5 -15 10 0
14 47 12 54 -2 5 -11 7 -11 12 0 7 14 64 17 64 2 0 -5 11 -10 25 -10 20 0 25
-5 25 -25 0 -32 13 -32 30 0 7 14 18 25 24 25 6 0 35 35 64 78 29 42 66 95 82
117 16 22 28 45 25 52 -2 6 5 19 15 28 11 10 22 27 26 39 4 11 22 36 40 54 19
18 34 39 34 46 0 7 9 21 20 31 22 20 61 91 54 98 -3 3 6 14 20 25 15 11 26 26
26 33 0 7 8 22 19 33 20 23 61 101 82 155 7 19 26 49 41 67 16 17 44 66 62
107 19 41 39 78 45 82 6 3 9 10 7 14 -3 4 2 17 12 27 22 26 52 79 52 94 0 17
62 140 71 140 4 0 10 11 13 25 4 14 20 55 36 91 17 35 30 66 30 69 0 2 5 16
12 32 6 15 12 33 13 38 6 25 49 121 62 136 7 8 13 23 13 31 0 9 7 21 15 28 9
7 13 15 11 18 -3 2 1 17 10 33 8 16 12 29 9 29 -3 0 2 11 11 25 9 14 13 25 10
25 -4 0 0 13 9 30 8 16 15 33 15 37 1 21 22 83 29 83 9 0 29 60 35 106 2 17
18 73 36 125 29 85 38 117 42 157 1 6 5 12 9 12 9 0 34 83 44 150 5 34 18 76
28 88 5 7 7 15 4 19 -3 3 0 18 9 34 8 16 14 31 14 34 -1 43 2 66 13 77 6 7 13
22 15 33 2 11 5 31 8 45 3 14 7 36 9 50 2 14 6 39 9 55 4 17 8 48 11 70 10 76
13 100 19 130 7 35 15 97 18 140 1 17 5 32 9 35 9 6 17 43 25 110 2 25 7 63
10 85 8 58 14 121 19 200 9 143 15 199 22 204 15 11 21 515 9 631 -4 36 -9
108 -11 160 -2 52 -6 115 -8 140 -3 25 -1 47 4 50 4 3 4 37 -1 75 -5 39 -11
106 -14 150 -4 44 -10 97 -15 117 -5 20 -6 39 -4 42 3 3 0 27 -6 53 -7 26 -13
66 -15 88 -7 100 -117 672 -140 730 -7 17 -18 59 -26 95 -7 36 -16 70 -20 75
-4 6 -13 37 -20 70 -7 33 -16 65 -20 70 -5 6 -11 28 -16 49 -4 22 -13 51 -20
65 -8 14 -14 35 -14 46 -1 11 -7 31 -15 45 -8 14 -14 35 -15 48 0 12 -4 22 -9
22 -5 0 -11 18 -15 39 -3 21 -13 41 -21 45 -8 3 -15 14 -15 25 0 10 -7 32 -15
47 -8 16 -15 37 -15 46 0 9 -4 20 -10 23 -5 3 -10 17 -10 31 0 13 -4 24 -10
24 -5 0 -10 7 -10 15 0 8 -11 40 -25 71 -14 31 -25 63 -25 71 0 14 -21 68 -72
183 -11 25 -24 53 -29 62 -5 10 -9 24 -9 32 0 8 -4 16 -8 18 -10 4 -62 111
-62 126 0 7 -4 12 -10 12 -5 0 -10 9 -10 20 0 11 -4 20 -10 20 -5 0 -10 8 -10
18 0 9 -14 33 -30 52 -16 19 -30 43 -30 53 0 9 -3 17 -8 17 -4 0 -15 18 -25
40 -9 22 -21 40 -27 40 -5 0 -10 8 -10 19 0 10 -6 24 -13 30 -8 6 -20 29 -27
51 -7 22 -16 40 -19 40 -4 0 -15 17 -26 38 -11 20 -22 39 -25 42 -3 3 -14 23
-25 45 -11 22 -26 46 -32 53 -7 7 -13 20 -13 27 0 8 -9 17 -20 20 -11 3 -20
13 -20 21 0 8 -4 14 -10 14 -5 0 -10 5 -10 10 0 6 -13 29 -30 52 -16 22 -30
47 -30 53 0 7 -7 15 -15 19 -8 3 -15 12 -15 21 0 8 -4 15 -9 15 -5 0 -12 11
-15 25 -4 14 -11 25 -16 25 -6 0 -10 9 -10 20 0 11 -4 20 -10 20 -5 0 -10 4
-10 10 0 8 -22 41 -85 125 -8 10 -15 22 -15 26 0 4 -9 9 -20 12 -11 3 -20 12
-20 21 0 9 -4 16 -8 16 -5 0 -19 19 -32 42 -13 23 -36 55 -52 70 -15 15 -28
31 -28 35 0 5 -8 16 -17 25 -10 8 -27 28 -38 42 -11 14 -38 46 -60 70 -47 50
-124 139 -187 215 -10 12 -18 25 -18 29 0 11 -78 92 -88 92 -5 0 -21 15 -34
33 -14 18 -62 69 -107 114 -44 45 -81 86 -81 92 0 6 -7 11 -15 11 -8 0 -23 8
-33 18 -10 9 -35 30 -55 47 -20 16 -37 33 -37 37 0 7 -59 68 -65 68 -10 0 -55
49 -55 59 0 6 -9 11 -20 11 -13 0 -24 10 -30 26 -6 14 -14 23 -18 20 -5 -3
-15 6 -22 19 -7 13 -17 22 -21 19 -4 -2 -13 5 -19 16 -6 11 -17 20 -24 20 -7
0 -35 20 -61 45 -25 25 -51 43 -56 40 -5 -4 -9 -2 -9 3 0 5 -26 29 -57 53 -31
24 -69 55 -83 69 -28 28 -77 62 -84 58 -3 -2 -22 14 -44 35 -21 20 -41 34 -45
31 -4 -4 -7 -3 -7 3 0 12 -101 89 -129 98 -12 3 -21 11 -21 16 0 5 -6 9 -13 9
-7 0 -30 16 -52 36 -22 19 -49 39 -60 45 -36 18 -65 36 -82 51 -10 9 -28 19
-40 22 -11 4 -24 13 -27 21 -3 8 -12 15 -20 15 -8 0 -21 6 -28 13 -7 6 -28 20
-46 30 l-32 18 5 -718z"/>
<path d="M10200 13651 c0 -7 11 -56 24 -109 13 -53 27 -119 32 -147 4 -27 9
-54 10 -60 6 -21 15 -62 29 -140 9 -44 26 -122 40 -174 13 -52 22 -98 19 -102
-2 -5 7 -54 21 -111 45 -185 41 -176 94 -202 51 -26 48 -26 266 -10 50 3 106
8 125 10 19 2 64 6 100 9 36 3 88 7 115 10 28 3 77 7 110 10 33 3 92 7 130 11
39 3 78 6 89 7 15 1 14 5 -10 25 -16 13 -45 38 -64 56 -19 18 -64 54 -100 81
-36 26 -72 56 -80 65 -8 9 -46 41 -85 70 -38 29 -77 61 -85 70 -8 10 -50 43
-92 75 -43 32 -78 61 -78 64 0 4 -36 34 -80 66 -44 32 -80 62 -80 66 0 3 -35
33 -77 65 -43 32 -80 61 -81 66 -2 5 -41 36 -85 70 -45 35 -89 70 -97 79 -31
34 -110 91 -110 80z"/>
<path d="M3833 12228 c-4 -7 -8 -17 -8 -23 -2 -17 -17 -49 -33 -68 -18 -20
-36 -50 -56 -93 -8 -17 -22 -36 -30 -44 -9 -7 -16 -19 -16 -27 0 -17 -38 -73
-62 -91 -10 -7 -18 -21 -18 -31 0 -10 -7 -24 -15 -31 -8 -7 -15 -17 -15 -23 0
-6 -6 -18 -13 -26 -7 -9 -19 -34 -26 -56 -7 -22 -20 -48 -29 -58 -8 -9 -12
-20 -9 -24 4 -3 0 -11 -8 -17 -7 -6 -23 -35 -35 -65 -11 -30 -30 -65 -40 -79
-11 -14 -20 -29 -20 -35 0 -16 -43 -97 -51 -97 -4 0 -10 -13 -14 -29 -3 -17
-21 -61 -39 -98 -18 -37 -39 -89 -47 -116 -7 -26 -24 -59 -36 -74 -13 -14 -24
-31 -25 -37 -8 -58 -25 -112 -55 -168 -8 -16 -11 -28 -8 -28 3 0 0 -10 -7 -22
-12 -23 -17 -39 -20 -70 -1 -10 -5 -18 -9 -18 -7 0 -19 -27 -19 -43 0 -4 -11
-29 -25 -57 -14 -27 -25 -56 -25 -63 0 -8 -9 -43 -21 -78 -25 -79 -31 -99 -32
-121 -1 -10 -5 -18 -8 -18 -4 0 -11 -10 -15 -22 -4 -13 -6 -23 -4 -23 2 0 -2
-10 -9 -23 -14 -26 -19 -47 -27 -112 -3 -24 -8 -48 -10 -52 -5 -9 -8 -18 -28
-118 -7 -36 -18 -76 -24 -90 -15 -34 -31 -105 -33 -140 0 -8 -3 -22 -7 -30 -3
-8 -7 -22 -9 -30 -1 -8 -5 -26 -8 -40 -3 -14 -7 -41 -10 -60 -2 -19 -8 -51
-11 -70 -4 -19 -8 -43 -9 -53 -1 -11 -6 -22 -11 -25 -5 -4 -10 -15 -11 -26 -8
-98 -13 -138 -18 -146 -4 -6 -8 -30 -11 -55 -3 -35 0 -45 11 -45 8 0 15 -4 15
-10 0 -5 14 -10 30 -10 25 0 30 -4 30 -25 0 -16 6 -25 15 -25 8 0 15 5 15 10
0 6 11 10 25 10 20 0 25 -5 25 -25 0 -21 5 -25 30 -25 28 0 30 -3 30 -35 0
-30 3 -35 24 -35 14 0 31 -7 40 -15 8 -8 24 -15 35 -15 14 0 21 -6 21 -20 0
-11 5 -20 10 -20 6 0 10 9 10 20 0 11 4 20 9 20 5 0 13 -9 16 -20 6 -19 15
-22 80 -25 68 -4 75 -6 75 -20 0 -8 7 -15 15 -15 8 0 15 -9 15 -20 0 -11 5
-20 10 -20 6 0 10 5 10 10 0 6 5 10 10 10 6 0 10 -7 10 -15 0 -8 9 -15 19 -15
11 0 22 -6 24 -12 4 -10 6 -10 6 0 1 6 10 12 21 12 14 0 20 -7 20 -22 0 -19 2
-20 10 -8 8 13 11 12 22 -3 10 -14 21 -17 41 -12 15 4 27 11 27 16 0 14 40 11
55 -4 7 -7 15 -22 18 -33 4 -16 5 -16 6 -1 1 11 9 17 25 17 15 0 26 -7 29 -17
4 -17 5 -17 6 0 2 27 21 20 21 -8 0 -16 6 -25 15 -25 8 0 15 5 15 10 0 6 14
10 30 10 17 0 30 -4 30 -10 0 -5 7 -10 15 -10 8 0 15 -4 15 -10 0 -5 7 -10 15
-10 8 0 15 5 15 10 0 18 48 11 54 -7 3 -10 3 403 1 917 -9 1675 -18 2630 -26
2630 -4 0 -11 -6 -16 -12z"/>
<path d="M3700 8331 c0 -16 -6 -32 -12 -34 -10 -4 -9 -8 2 -17 11 -9 12 -13 3
-17 -10 -3 -10 -8 1 -19 8 -8 19 -14 25 -14 6 0 11 -4 11 -10 0 -5 -11 -10
-25 -10 -14 0 -25 5 -25 11 0 18 -29 -18 -36 -45 -7 -31 -24 -35 -24 -6 0 13
-7 20 -20 20 -16 0 -20 -7 -20 -30 0 -25 -4 -30 -25 -30 -20 0 -25 -5 -25 -25
0 -28 -20 -35 -21 -7 0 13 -2 14 -6 2 -8 -20 -29 -40 -42 -40 -5 0 -12 10 -14
23 l-4 22 -2 -22 c0 -13 -5 -23 -11 -23 -5 0 -10 -7 -10 -15 0 -8 -7 -15 -15
-15 -8 0 -15 -6 -15 -14 0 -8 -6 -17 -12 -19 -10 -4 -9 -8 2 -16 13 -9 13 -11
-2 -11 -11 0 -18 -8 -18 -20 0 -11 -6 -20 -14 -20 -8 0 -17 -11 -20 -25 -4
-15 -13 -25 -25 -25 -14 0 -20 -10 -25 -46 -6 -45 -18 -66 -46 -77 -12 -4 -11
-6 3 -6 24 -1 22 -31 -3 -31 -13 0 -20 -7 -20 -19 0 -11 -6 -22 -12 -24 -10
-4 -10 -6 0 -6 6 -1 12 -12 12 -25 0 -13 -6 -27 -12 -30 -10 -5 -10 -7 0 -12
22 -10 13 -34 -13 -34 -24 0 -36 -24 -16 -32 5 -1 11 -34 13 -71 2 -52 -1 -70
-12 -77 -10 -7 -12 -12 -4 -17 6 -5 14 -44 17 -87 3 -47 11 -82 18 -87 16 -10
17 -81 1 -87 -14 -4 -16 -42 -2 -42 14 0 12 -27 -2 -34 -10 -5 -10 -7 0 -12
14 -7 16 -54 2 -54 -5 0 -10 -11 -10 -25 0 -14 5 -25 10 -25 6 0 10 5 10 10 0
6 9 10 20 10 13 0 20 -7 20 -19 0 -11 6 -22 13 -24 10 -4 10 -6 0 -6 -15 -1
-18 -48 -3 -53 5 -1 12 -37 15 -78 3 -41 10 -76 15 -78 14 -5 12 -39 -2 -46
-10 -5 -10 -7 0 -12 14 -7 16 -34 2 -34 -15 0 -12 -19 6 -37 13 -14 17 -14 25
-2 7 10 9 8 8 -11 -4 -54 1 -80 16 -80 8 0 15 -7 15 -15 0 -8 -7 -15 -15 -15
-8 0 -15 -7 -15 -15 0 -8 7 -15 15 -15 9 0 15 -10 16 -27 5 -121 8 -135 30
-154 18 -15 23 -32 25 -69 1 -36 -3 -50 -12 -50 -8 0 -14 -4 -14 -10 0 -5 -7
-10 -15 -10 -8 0 -15 5 -15 10 0 6 -11 10 -24 10 -40 0 -56 11 -57 39 -1 17
-3 20 -6 9 -7 -29 -23 -20 -23 12 0 20 -5 30 -15 30 -10 0 -15 10 -15 28 -2
118 -8 153 -34 177 -15 14 -26 35 -26 50 0 14 -4 25 -10 25 -5 0 -10 14 -10
30 0 20 -6 33 -17 37 -26 9 -33 23 -33 66 0 30 -4 37 -20 37 -13 0 -22 9 -26
25 -3 14 -10 25 -15 25 -5 0 -9 16 -9 35 0 32 -2 35 -30 35 -25 0 -30 4 -30
24 0 27 -24 56 -46 56 -9 0 -14 11 -14 30 0 20 -5 30 -15 30 -8 0 -15 5 -15
10 0 6 -7 10 -15 10 -8 0 -15 -4 -15 -10 0 -5 -4 -10 -10 -10 -5 0 -10 13 -10
29 0 22 -6 30 -25 35 -14 4 -25 11 -25 16 0 6 -7 10 -15 10 -8 0 -15 -6 -15
-12 1 -17 124 -586 145 -668 10 -36 23 -78 30 -95 7 -16 16 -51 20 -77 4 -27
11 -48 15 -48 4 0 11 -17 15 -37 8 -45 37 -136 46 -143 4 -3 10 -24 14 -47 4
-24 11 -43 16 -43 5 0 9 -7 9 -16 0 -22 33 -118 43 -122 4 -2 7 -12 7 -22 0
-25 28 -90 39 -90 5 0 12 -13 16 -30 4 -16 11 -32 16 -35 5 -4 9 -17 9 -31 0
-13 5 -24 10 -24 6 0 10 -11 10 -25 0 -14 5 -25 10 -25 6 0 10 -7 10 -15 0 -8
4 -23 9 -33 5 -9 19 -42 32 -72 13 -30 27 -56 32 -58 4 -2 7 -12 7 -23 0 -10
5 -19 10 -19 6 0 10 -11 10 -25 0 -14 5 -25 10 -25 6 0 10 -6 10 -13 0 -7 25
-62 55 -123 30 -60 55 -115 55 -121 0 -7 4 -13 9 -13 5 0 15 -16 22 -34 7 -19
16 -33 20 -31 4 3 19 -20 34 -50 14 -30 30 -57 36 -60 5 -4 9 -15 9 -26 0 -10
3 -19 8 -19 10 0 32 -50 32 -72 0 -10 3 -18 8 -18 4 0 16 -19 27 -43 11 -23
24 -48 30 -55 5 -7 15 -18 20 -25 17 -22 34 -51 55 -94 11 -24 24 -43 29 -43
5 0 12 -11 15 -25 4 -14 13 -25 21 -25 8 0 15 -4 15 -9 0 -11 75 -124 117
-177 18 -23 33 -46 33 -53 0 -6 4 -11 9 -11 5 0 12 -9 16 -20 6 -19 37 -59 83
-107 12 -13 22 -28 22 -33 0 -6 4 -10 8 -10 4 0 19 -18 32 -40 14 -22 30 -40
35 -40 11 -1 55 -66 55 -81 0 -5 5 -9 10 -9 6 0 10 -6 10 -14 0 -7 10 -24 23
-38 60 -66 77 -89 77 -100 0 -6 3 -8 6 -5 4 4 23 -12 43 -35 20 -23 51 -56 69
-75 17 -18 32 -35 32 -38 0 -3 10 -16 23 -29 12 -13 41 -44 65 -70 23 -26 42
-43 42 -39 0 5 4 2 8 -5 5 -7 54 -60 110 -117 56 -58 102 -109 102 -113 0 -5
12 -15 27 -23 35 -18 73 -53 73 -68 0 -6 3 -11 8 -11 4 0 36 -27 71 -60 35
-33 67 -60 72 -60 5 0 9 -7 9 -15 0 -8 15 -21 33 -30 36 -17 92 -62 148 -117
21 -21 41 -38 46 -38 4 0 14 -9 21 -20 7 -11 19 -20 26 -20 8 0 18 -9 21 -20
3 -11 12 -20 18 -20 7 0 25 -13 40 -30 16 -16 42 -37 58 -47 16 -10 29 -21 29
-25 0 -4 9 -8 20 -8 10 0 24 -9 30 -20 6 -11 18 -20 27 -20 9 0 25 -10 37 -22
12 -13 34 -32 50 -43 16 -11 47 -34 70 -50 43 -32 76 -49 89 -47 4 1 7 -4 7
-12 0 -8 9 -17 19 -21 11 -3 22 -12 25 -20 3 -8 12 -15 20 -15 9 0 20 -9 26
-20 6 -11 14 -19 18 -18 10 3 89 -40 97 -52 3 -5 14 -10 25 -10 10 0 20 -7 24
-15 3 -8 16 -20 28 -25 13 -5 41 -21 63 -35 22 -14 50 -29 63 -35 12 -5 22
-14 22 -20 0 -5 6 -10 13 -10 6 0 28 -10 47 -22 19 -12 39 -22 43 -23 5 0 14
-7 20 -15 15 -20 98 -61 109 -54 4 3 8 1 8 -5 0 -6 20 -19 44 -29 24 -11 47
-25 50 -31 4 -6 14 -11 23 -11 9 0 38 -14 65 -31 28 -16 53 -28 56 -25 3 4 12
0 21 -8 9 -8 48 -31 86 -51 39 -21 81 -44 95 -51 14 -8 31 -14 39 -14 8 0 22
-6 30 -14 9 -8 36 -21 61 -29 25 -9 64 -25 88 -37 23 -11 46 -18 51 -16 5 3
14 -1 21 -9 7 -8 21 -15 31 -15 9 0 24 -7 33 -15 8 -8 19 -15 24 -15 5 0 30
-11 56 -25 25 -13 50 -25 54 -25 14 -1 48 -12 82 -28 19 -9 40 -17 45 -18 26
-4 55 -17 55 -25 0 -5 11 -9 24 -9 14 0 28 -5 31 -10 4 -6 10 -8 15 -5 5 3 11
1 15 -5 3 -5 17 -10 30 -10 13 0 36 -5 52 -12 15 -6 33 -12 38 -13 6 -1 12 -3
15 -4 3 -2 16 -4 29 -5 14 -2 27 -8 29 -15 2 -6 8 -8 13 -5 6 3 16 0 24 -6 8
-7 15 -9 15 -6 0 4 7 0 16 -8 8 -9 23 -16 33 -16 10 0 21 -3 25 -7 7 -7 19
-10 71 -18 17 -2 39 -9 50 -14 11 -5 40 -15 65 -22 64 -18 73 -20 90 -21 8 -1
17 -4 20 -7 7 -9 141 -51 162 -51 9 0 19 -4 22 -8 3 -5 20 -8 37 -7 18 1 69
-6 113 -16 44 -10 82 -16 84 -14 3 2 11 -2 19 -10 12 -12 55 -21 66 -13 1 1
12 -4 24 -10 12 -7 46 -15 75 -18 29 -3 57 -8 61 -11 4 -2 22 -6 40 -9 37 -4
125 -21 177 -34 49 -12 155 -29 220 -36 30 -3 57 -7 61 -10 4 -2 58 -7 119 -9
62 -3 116 -8 121 -11 5 -3 31 -7 57 -10 26 -2 70 -7 97 -10 28 -3 84 -8 125
-10 41 -2 116 -7 165 -9 50 -3 118 -6 153 -7 34 -1 62 -5 62 -9 0 -14 854 2
902 17 10 3 18 1 18 -5 0 -11 53 -7 149 11 29 5 79 11 110 13 53 3 231 24 384
46 37 5 97 13 135 18 37 5 90 14 117 21 28 6 73 13 100 16 88 8 749 154 787
174 9 5 46 15 82 21 36 7 66 16 66 21 0 4 9 8 20 8 11 0 46 8 77 18 32 11 85
27 118 37 131 39 161 49 190 61 17 6 49 15 72 19 43 7 146 43 128 45 -16 1 88
40 108 40 9 0 17 5 17 10 0 6 9 10 20 10 20 0 29 4 77 28 13 7 30 12 38 12 8
0 15 5 15 10 0 6 8 10 17 10 24 0 83 23 83 32 0 4 7 8 15 8 8 0 23 4 33 9 18
9 62 28 97 41 11 5 50 22 87 39 37 17 69 31 73 31 14 0 155 74 155 82 0 4 9 8
20 8 11 0 20 5 20 10 0 6 5 10 12 10 18 0 88 33 88 42 0 4 7 8 14 8 8 0 36 11
62 25 26 14 53 25 60 25 8 0 14 5 14 10 0 6 6 10 14 10 8 0 21 6 28 13 7 7 45
28 83 47 39 19 76 41 83 47 7 7 20 13 28 13 8 0 14 5 14 10 0 6 8 10 18 10 9
0 35 16 56 35 22 19 46 35 53 35 19 0 133 60 133 70 0 4 11 11 25 14 14 4 25
11 25 16 0 6 6 10 13 10 8 0 24 9 37 20 13 11 27 20 32 20 10 0 38 25 38 34 0
3 -11 6 -25 6 -14 0 -25 4 -25 8 0 5 -11 15 -24 22 -14 7 -26 22 -28 34 -4 25
-48 36 -48 12 0 -9 -4 -16 -9 -16 -11 0 -21 25 -21 51 0 10 -6 19 -14 19 -8 0
-17 6 -19 13 -4 9 -8 8 -16 -3 -10 -13 -12 -13 -21 0 -5 8 -10 25 -10 38 0 17
-6 22 -25 22 -14 0 -25 5 -25 10 0 6 -5 10 -11 10 -14 0 -39 25 -39 39 0 6 -7
11 -15 11 -8 0 -15 5 -15 10 0 6 -11 10 -25 10 -14 0 -25 5 -25 10 0 6 -7 10
-15 10 -9 0 -15 9 -15 25 0 16 -6 25 -15 25 -8 0 -15 5 -15 10 0 6 -16 10 -35
10 -31 0 -35 3 -41 35 -6 34 -7 35 -55 35 -46 0 -49 2 -49 25 0 16 -6 25 -15
25 -8 0 -15 5 -15 10 0 6 -6 10 -14 10 -8 0 -17 6 -19 13 -4 9 -8 9 -15 -1 -8
-12 -13 -12 -31 -1 -11 8 -21 18 -21 24 0 6 -17 9 -40 7 -32 -3 -40 -1 -40 12
0 9 -7 16 -15 16 -8 0 -15 4 -15 8 0 5 -11 15 -25 22 -14 7 -25 19 -25 27 0 7
-11 13 -25 13 -16 0 -25 -6 -25 -15 0 -8 -7 -15 -15 -15 -8 0 -15 5 -15 11 0
12 -29 38 -42 39 -5 0 -8 -7 -8 -15 0 -24 -19 -17 -26 10 -4 18 -13 25 -31 25
-22 0 -24 -3 -19 -25 5 -18 2 -25 -9 -25 -9 0 -15 9 -15 25 0 23 -3 25 -51 25
-40 0 -56 5 -70 22 -11 11 -19 27 -19 35 0 7 -4 13 -10 13 -5 0 -10 -12 -10
-26 0 -31 -23 -28 -28 4 -2 15 -10 22 -27 22 -16 0 -25 7 -29 25 -7 27 -26 34
-26 10 0 -11 -11 -15 -41 -15 -24 0 -38 -4 -34 -10 3 -5 -1 -10 -9 -10 -9 0
-16 5 -16 10 0 6 -11 10 -25 10 -16 0 -25 -6 -25 -15 0 -21 -11 -18 -39 10
-13 14 -27 25 -32 25 -5 0 -11 11 -15 25 -3 14 -13 25 -21 25 -8 0 -11 -4 -8
-10 4 -6 -5 -10 -19 -10 -21 0 -26 -5 -26 -25 0 -14 -4 -25 -10 -25 -5 0 -10
5 -10 10 0 6 -6 10 -14 10 -8 0 -16 5 -18 12 -3 8 -23 11 -56 9 -42 -2 -52 1
-52 13 0 9 -7 16 -15 16 -8 0 -15 -7 -15 -15 0 -8 -4 -15 -10 -15 -5 0 -10 7
-10 15 0 10 -10 15 -30 15 -16 0 -30 5 -30 10 0 6 -7 10 -15 10 -9 0 -15 9
-15 25 0 21 -5 25 -29 25 -25 0 -28 -3 -23 -25 3 -18 0 -25 -12 -25 -9 0 -16
5 -16 10 0 6 -18 10 -40 10 -38 0 -40 -1 -34 -25 6 -24 4 -25 -35 -25 -30 0
-41 -4 -41 -15 0 -9 -9 -15 -25 -15 -16 0 -25 6 -25 15 0 12 -13 15 -56 15
-46 0 -55 -3 -50 -15 4 -11 -2 -15 -24 -15 -22 0 -28 -4 -24 -15 4 -9 0 -15
-10 -15 -9 0 -16 -4 -16 -10 0 -5 -18 -10 -40 -10 -31 0 -38 -3 -34 -15 4 -9
0 -15 -10 -15 -23 0 -20 -15 7 -33 22 -16 22 -16 -10 -16 -29 -1 -33 2 -33 24
0 16 -6 25 -16 25 -13 0 -15 -7 -9 -40 l7 -40 -41 0 c-30 0 -41 -4 -41 -15 0
-9 -9 -15 -25 -15 -16 0 -25 6 -25 15 0 8 -7 15 -15 15 -8 0 -15 -7 -15 -15 0
-9 -9 -15 -25 -15 -16 0 -25 6 -25 16 0 10 -6 14 -14 11 -8 -3 -17 1 -20 9 -3
8 1 14 9 14 23 0 18 41 -5 47 -13 3 -20 14 -20 29 0 22 -4 24 -45 24 -33 0
-45 4 -45 15 0 8 -7 15 -15 15 -8 0 -15 5 -15 10 0 6 5 10 10 10 6 0 10 7 10
15 0 8 -7 15 -15 15 -8 0 -15 8 -15 18 0 9 -3 27 -6 40 -5 16 -2 22 10 22 10
0 16 -9 16 -25 0 -16 6 -25 15 -25 8 0 15 5 15 10 0 6 6 10 14 10 9 0 12 8 9
25 -4 20 0 25 22 31 22 5 26 11 21 30 -6 22 -3 24 34 24 29 0 40 4 40 15 0 11
11 15 40 15 22 0 40 5 40 10 0 6 18 10 41 10 32 0 40 3 35 15 -3 9 0 15 9 15
8 0 15 -7 15 -16 0 -13 6 -15 28 -9 15 3 29 11 30 16 2 5 20 9 39 9 l36 0 -6
40 -5 40 38 0 c22 0 42 -4 45 -10 3 -5 24 -10 46 -10 24 0 38 4 34 10 -3 5 1
10 9 10 9 0 16 7 16 15 0 9 10 15 26 15 19 0 25 4 20 15 -4 11 2 15 27 16 32
0 32 0 10 16 -30 20 -29 33 2 33 14 0 25 5 25 10 0 6 18 10 40 10 29 0 40 4
40 15 0 11 11 15 40 15 31 0 38 3 34 15 -5 12 3 15 35 15 23 0 41 5 41 10 0 6
-7 10 -15 10 -8 0 -15 7 -15 15 0 10 11 15 35 15 24 0 35 5 35 15 0 11 11 15
40 15 22 0 40 5 40 10 0 6 11 10 24 10 18 0 25 -6 28 -23 2 -15 11 -23 30 -25
25 -3 26 -2 21 37 -5 39 -4 41 21 41 23 0 26 3 20 25 -4 18 -2 25 9 25 10 0
13 8 9 25 -4 22 -1 25 22 25 16 0 26 5 26 15 0 10 11 15 35 15 19 0 35 5 35
10 0 6 18 10 40 10 29 0 40 4 40 15 0 10 11 15 35 15 19 0 35 5 35 11 0 18 27
39 51 39 20 0 21 4 15 40 -6 38 -5 40 19 40 16 0 25 6 25 15 0 8 5 15 10 15 6
0 10 11 10 25 0 20 5 25 26 25 14 0 23 4 19 10 -4 6 10 10 34 10 30 0 41 4 41
15 0 8 -7 15 -15 15 -8 0 -15 5 -15 10 0 6 5 10 10 10 6 0 10 7 10 15 0 25 48
19 52 -7 2 -12 9 -24 17 -26 11 -4 13 3 8 32 -5 33 -4 36 19 36 15 0 24 6 24
15 0 8 -7 15 -15 15 -8 0 -15 5 -15 11 0 14 26 39 40 39 7 0 10 7 6 15 -4 11
1 15 19 15 14 0 25 5 25 10 0 6 -11 10 -25 10 -15 0 -25 6 -25 14 0 8 -3 22
-6 31 -5 13 -2 15 21 9 27 -7 27 -6 23 35 -2 29 0 41 9 41 7 0 13 7 13 15 0 8
-7 15 -15 15 -8 0 -15 5 -15 10 0 6 5 10 11 10 7 0 10 12 7 30 -3 20 0 30 9
30 7 0 13 5 13 10 0 6 -7 10 -15 10 -21 0 -19 23 5 40 24 17 26 36 5 44 -24 9
-17 26 10 26 20 0 25 5 25 25 0 15 -6 25 -14 25 -7 0 -16 11 -18 25 -4 17 -1
25 8 25 8 0 14 7 14 15 0 8 -6 15 -14 15 -15 0 -20 17 -31 103 -6 45 -5 47 19
47 16 0 26 6 26 15 0 10 -10 15 -30 15 -25 0 -30 4 -30 25 0 16 -6 25 -15 25
-9 0 -15 9 -15 24 0 13 -3 31 -6 40 -4 11 -1 16 10 16 22 0 20 12 -4 33 -12
10 -20 29 -20 49 0 18 -3 43 -6 56 -5 19 -2 22 20 22 35 0 34 28 -1 32 -21 2
-29 9 -31 27 l-4 23 -5191 -3 -5192 -4 -58 29 c-68 33 -108 82 -126 153 -7 26
-21 77 -31 113 -19 62 -20 123 -30 1185 -5 616 -10 1210 -11 1320 0 110 -3
194 -6 188 -2 -7 -11 -13 -19 -13 -8 0 -14 -7 -14 -15 0 -10 -10 -15 -30 -15
-16 0 -30 -4 -30 -10 0 -5 -11 -10 -25 -10 -20 0 -25 5 -27 28 -2 45 3 77 13
80 21 8 7 22 -21 22 -26 0 -30 -3 -30 -29z"/>
<path d="M3250 6695 c0 -8 5 -15 10 -15 6 0 10 7 10 15 0 8 -4 15 -10 15 -5 0
-10 -7 -10 -15z"/>
<path d="M17083 4005 c-16 -17 -17 -35 -3 -35 6 0 10 7 10 15 0 8 5 15 10 15
6 0 10 5 10 10 0 14 -13 12 -27 -5z"/>
<path d="M17380 3950 c0 -11 5 -20 10 -20 6 0 10 -9 10 -20 0 -11 7 -23 15
-26 22 -9 18 -24 -5 -24 -15 0 -20 -7 -20 -25 0 -14 -4 -25 -10 -25 -5 0 -10
5 -10 10 0 6 -16 10 -36 10 -33 0 -36 -2 -32 -25 4 -17 1 -25 -9 -25 -8 0 -11
-4 -8 -10 3 -5 -1 -10 -9 -10 -10 0 -16 9 -16 25 0 23 -4 25 -46 25 -44 0 -46
-1 -42 -25 4 -17 1 -25 -8 -25 -8 0 -14 11 -14 25 0 14 -4 25 -10 25 -5 0 -10
-6 -10 -14 0 -8 -6 -17 -12 -20 -10 -5 -10 -7 0 -12 19 -9 14 -24 -8 -24 -11
0 -20 -7 -20 -15 0 -8 -4 -15 -10 -15 -5 0 -10 11 -10 25 0 22 -4 25 -35 25
-19 0 -35 -4 -35 -10 0 -5 -9 -10 -20 -10 -15 0 -20 -7 -20 -25 0 -21 -5 -25
-30 -25 -20 0 -30 -5 -30 -15 0 -10 -11 -15 -35 -15 -32 0 -35 2 -35 30 0 18
-6 33 -15 36 -17 7 -21 34 -5 34 6 0 10 11 10 25 0 14 5 25 10 25 6 0 10 5 10
10 0 6 -16 10 -36 10 -35 0 -36 -1 -32 -35 3 -25 0 -35 -11 -37 -12 -2 -11 -6
4 -21 15 -15 16 -20 5 -27 -11 -7 -8 -14 13 -34 15 -14 27 -28 27 -31 0 -10
-36 -5 -47 6 -16 16 -47 -16 -40 -41 3 -13 0 -20 -9 -20 -8 0 -14 -4 -14 -10
0 -5 -4 -10 -10 -10 -5 0 -10 9 -10 20 0 14 -7 20 -23 20 -20 0 -23 -4 -19
-35 4 -34 3 -35 -31 -35 -35 0 -36 -1 -30 -35 7 -41 -13 -49 -23 -10 -3 14
-10 25 -15 25 -5 0 -9 -11 -9 -25 0 -14 -4 -25 -10 -25 -5 0 -10 -7 -10 -15 0
-8 -4 -15 -10 -15 -5 0 -10 11 -10 25 0 14 -4 25 -10 25 -5 0 -10 -11 -10 -25
0 -14 -4 -25 -10 -25 -5 0 -10 -9 -10 -20 0 -13 -7 -20 -20 -20 -11 0 -20 -6
-20 -14 0 -8 -6 -17 -12 -20 -10 -5 -10 -7 0 -12 19 -9 14 -34 -8 -34 -13 0
-20 -7 -20 -20 0 -11 -4 -20 -10 -20 -5 0 -10 -11 -10 -25 0 -14 -5 -25 -11
-25 -6 0 -9 -7 -5 -15 4 -11 -2 -15 -21 -15 -24 0 -25 -3 -20 -35 3 -19 2 -35
-4 -35 -5 0 -9 -10 -9 -23 0 -12 -9 -29 -20 -37 -21 -15 -27 -40 -10 -40 6 0
10 -4 10 -10 0 -5 -9 -10 -20 -10 -15 0 -20 -7 -20 -25 0 -14 -4 -25 -10 -25
-5 0 -10 -4 -10 -10 0 -5 7 -10 15 -10 10 0 15 -11 15 -35 0 -19 -4 -35 -10
-35 -5 0 -10 -7 -10 -15 0 -8 7 -15 15 -15 8 0 15 -4 15 -10 0 -5 -16 -10 -35
-10 -38 0 -46 -17 -20 -44 9 -9 18 -42 22 -81 4 -45 10 -65 19 -65 8 0 14 -4
14 -10 0 -5 -3 -10 -8 -10 -4 0 -13 -9 -20 -20 -10 -17 -10 -23 3 -36 8 -9 15
-26 15 -40 0 -29 21 -31 38 -4 7 11 19 20 27 20 8 0 15 3 15 8 0 4 21 19 48
34 26 15 67 46 91 68 25 22 48 40 52 40 4 0 11 9 14 20 3 11 13 20 20 20 8 0
28 14 45 30 17 17 35 30 40 30 6 0 10 6 10 14 0 8 4 16 9 18 8 3 62 45 110 85
14 13 29 23 34 23 4 0 7 5 7 11 0 14 76 89 90 89 5 0 13 6 17 13 4 7 32 30 61
52 28 21 52 42 52 46 0 9 171 180 233 233 25 22 44 43 41 47 -2 4 9 18 25 31
16 14 34 34 40 46 6 11 20 24 31 27 11 3 20 12 20 18 0 7 24 36 54 64 30 29
57 61 60 71 4 10 18 25 31 32 14 7 25 19 25 25 0 6 14 21 30 33 17 13 30 27
30 33 0 6 14 24 30 39 30 28 39 50 20 50 -5 0 -10 -4 -10 -10 0 -5 -7 -10 -15
-10 -8 0 -15 9 -15 20 0 13 -7 20 -20 20 -13 0 -20 -7 -20 -20 0 -16 -7 -20
-30 -20 -16 0 -30 5 -30 10 0 6 -16 10 -35 10 -31 0 -35 3 -35 25 0 16 -6 25
-15 25 -8 0 -15 9 -15 20 0 16 -7 20 -30 20 -23 0 -30 -4 -30 -20z"/>
<path d="M17343 3936 c9 -7 17 -18 17 -25 0 -6 5 -11 10 -11 6 0 10 5 10 11 0
15 -26 39 -42 39 -9 -1 -7 -5 5 -14z"/>
<path d="M17660 3916 c0 -14 29 -30 38 -21 3 3 0 5 -6 5 -7 0 -12 7 -12 15 0
8 -4 15 -10 15 -5 0 -10 -6 -10 -14z"/>
<path d="M17120 3865 c0 -8 7 -15 15 -15 9 0 12 6 9 15 -4 8 -10 15 -15 15 -5
0 -9 -7 -9 -15z"/>
<path d="M14280 3805 c0 -16 6 -25 16 -25 11 0 14 5 10 16 -3 9 -6 20 -6 25 0
5 -4 9 -10 9 -5 0 -10 -11 -10 -25z"/>
<path d="M14060 3735 c0 -9 9 -15 25 -15 16 0 25 6 25 15 0 9 -9 15 -25 15
-16 0 -25 -6 -25 -15z"/>
<path d="M14134 3734 c3 -9 6 -27 6 -40 0 -15 6 -24 16 -24 12 0 15 6 10 23
-3 12 -6 30 -6 40 0 9 -7 17 -16 17 -11 0 -14 -5 -10 -16z"/>
<path d="M15428 2415 c3 -19 11 -25 29 -25 19 0 24 4 19 16 -3 9 -6 20 -6 25
0 5 -11 9 -24 9 -19 0 -22 -4 -18 -25z"/>
</g>
</svg>
